<svg width="280" height="106" viewBox="0 0 280 106" fill="none" xmlns="http://www.w3.org/2000/svg">
<g style="mix-blend-mode:color-burn" opacity="0.12">
<path d="M17.31 10.421L17.31 79H0.723L0.723 10.421L17.31 10.421ZM49.3261 24.195C53.4647 24.195 57.0214 25.1327 59.9961 27.008C62.9707 28.8833 65.1694 31.4377 66.5921 34.671V24.874H83.0821V78.709C83.0821 83.753 82.1121 88.2797 80.1721 92.289C78.2321 96.363 75.2574 99.5963 71.2481 101.989C67.2387 104.382 62.2594 105.578 56.3101 105.578C48.1621 105.578 41.6307 103.638 36.7161 99.758C31.8661 95.9427 28.9561 90.737 27.9861 84.141L44.3791 84.141C44.8964 86.3397 46.0604 88.0533 47.8711 89.282C49.7464 90.5107 52.1714 91.125 55.1461 91.125C58.5734 91.125 61.3217 90.1227 63.3911 88.118C65.5251 86.178 66.5921 83.0417 66.5921 78.709V69.203C65.1694 72.4363 62.9707 74.9907 59.9961 76.866C57.0214 78.7413 53.4647 79.679 49.3261 79.679C44.8641 79.679 40.8547 78.5797 37.2981 76.381C33.8061 74.1177 31.0254 70.8843 28.9561 66.681C26.9514 62.4777 25.9491 57.563 25.9491 51.937C25.9491 46.2463 26.9514 41.3317 28.9561 37.193C31.0254 32.9897 33.8061 29.7887 37.2981 27.59C40.8547 25.3267 44.8641 24.195 49.3261 24.195ZM54.6611 38.745C51.1044 38.745 48.2267 39.909 46.0281 42.237C43.8941 44.565 42.8271 47.7983 42.8271 51.937C42.8271 56.0757 43.8941 59.309 46.0281 61.637C48.2267 63.965 51.1044 65.129 54.6611 65.129C58.1531 65.129 60.9984 63.9327 63.1971 61.54C65.4604 59.1473 66.5921 55.9463 66.5921 51.937C66.5921 47.863 65.4604 44.662 63.1971 42.334C60.9984 39.9413 58.1531 38.745 54.6611 38.745ZM128.84 24.292C135.048 24.292 139.963 26.3613 143.584 30.5C147.27 34.6387 149.113 40.3293 149.113 47.572L149.113 79H132.526L132.526 49.512C132.526 45.8907 131.556 43.0777 129.616 41.073C127.741 39.0037 125.219 37.969 122.05 37.969C118.688 37.969 116.004 39.036 113.999 41.17C112.059 43.304 111.089 46.3433 111.089 50.288V79H94.5023V24.874L111.089 24.874V34.768C112.641 31.5347 114.937 28.9803 117.976 27.105C121.08 25.2297 124.702 24.292 128.84 24.292ZM158.501 9.645C158.501 7.123 159.406 5.05366 161.217 3.437C163.028 1.75566 165.42 0.914994 168.395 0.914994C171.37 0.914994 173.762 1.75566 175.573 3.437C177.384 5.05366 178.289 7.123 178.289 9.645C178.289 12.1023 177.384 14.1717 175.573 15.853C173.762 17.4697 171.37 18.278 168.395 18.278C165.42 18.278 163.028 17.4697 161.217 15.853C159.406 14.1717 158.501 12.1023 158.501 9.645ZM176.64 24.874L176.64 79H160.053L160.053 24.874H176.64ZM218.744 64.741V79L211.275 79C204.938 79 199.991 77.448 196.434 74.344C192.942 71.1753 191.196 65.9697 191.196 58.727V38.842H183.921V24.874H191.196V11.585L207.783 11.585V24.874H218.647V38.842L207.783 38.842V59.018C207.783 61.152 208.203 62.6393 209.044 63.48C209.949 64.3207 211.437 64.741 213.506 64.741L218.744 64.741ZM279.477 50.482C279.477 51.84 279.315 53.3273 278.992 54.944H241.453C241.647 59.018 242.681 61.9603 244.557 63.771C246.432 65.517 248.825 66.39 251.735 66.39C254.192 66.39 256.229 65.7757 257.846 64.547C259.462 63.3183 260.529 61.734 261.047 59.794H278.604C277.892 63.6093 276.34 67.0367 273.948 70.076C271.555 73.0507 268.516 75.411 264.83 77.157C261.144 78.8383 257.037 79.679 252.511 79.679C247.208 79.679 242.487 78.5797 238.349 76.381C234.275 74.1177 231.074 70.8843 228.746 66.681C226.418 62.4777 225.254 57.563 225.254 51.937C225.254 46.2463 226.385 41.3317 228.649 37.193C230.977 32.9897 234.21 29.7887 238.349 27.59C242.487 25.3267 247.208 24.195 252.511 24.195C257.878 24.195 262.599 25.2943 266.673 27.493C270.747 29.6917 273.883 32.7957 276.082 36.805C278.345 40.7497 279.477 45.3087 279.477 50.482ZM262.696 47.96C262.76 44.4033 261.79 41.752 259.786 40.006C257.846 38.1953 255.421 37.29 252.511 37.29C249.471 37.29 246.949 38.1953 244.945 40.006C242.94 41.8167 241.808 44.468 241.55 47.96H262.696Z" fill="#200559"/>
</g>
</svg>
