<svg width="336" height="105" viewBox="0 0 336 105" fill="none" xmlns="http://www.w3.org/2000/svg">
<g style="mix-blend-mode:color-burn" opacity="0.12">
<path d="M17.31 10.421L17.31 79H0.723L0.723 10.421L17.31 10.421ZM63.1001 24.292C69.3081 24.292 74.2227 26.3613 77.8441 30.5C81.5301 34.6387 83.3731 40.3293 83.3731 47.572V79H66.7861V49.512C66.7861 45.8907 65.8161 43.0777 63.8761 41.073C62.0007 39.0037 59.4787 37.969 56.3101 37.969C52.9474 37.969 50.2637 39.036 48.2591 41.17C46.3191 43.304 45.3491 46.3433 45.3491 50.288V79L28.7621 79L28.7621 24.874H45.3491V34.768C46.9011 31.5347 49.1967 28.9803 52.2361 27.105C55.3401 25.2297 58.9614 24.292 63.1001 24.292ZM114.004 24.195C120.859 24.195 126.323 25.9087 130.397 29.336C134.536 32.7633 137.122 37.29 138.157 42.916L122.637 42.916C122.184 40.7173 121.15 39.0037 119.533 37.775C117.981 36.4817 116.009 35.835 113.616 35.835C111.741 35.835 110.318 36.2553 109.348 37.096C108.378 37.872 107.893 39.0037 107.893 40.491C107.893 42.1723 108.766 43.4333 110.512 44.274C112.323 45.1147 115.136 45.9553 118.951 46.796C123.09 47.766 126.485 48.7683 129.136 49.803C131.787 50.773 134.083 52.3897 136.023 54.653C137.963 56.9163 138.933 59.9557 138.933 63.771C138.933 66.875 138.092 69.6233 136.411 72.016C134.73 74.4087 132.305 76.284 129.136 77.642C125.967 79 122.217 79.679 117.884 79.679C110.577 79.679 104.724 78.0623 100.327 74.829C95.9295 71.5957 93.2458 66.972 92.2758 60.958H108.281C108.54 63.286 109.51 65.0643 111.191 66.293C112.937 67.5217 115.168 68.136 117.884 68.136C119.759 68.136 121.182 67.7157 122.152 66.875C123.122 65.9697 123.607 64.8057 123.607 63.383C123.607 61.5077 122.702 60.182 120.891 59.406C119.145 58.5653 116.267 57.6923 112.258 56.787C108.249 55.9463 104.951 55.041 102.364 54.071C99.7772 53.101 97.5462 51.549 95.6708 49.415C93.7955 47.2163 92.8578 44.2417 92.8578 40.491C92.8578 35.641 94.7008 31.7287 98.3868 28.754C102.073 25.7147 107.279 24.195 114.004 24.195ZM181.874 24.195C186.336 24.195 190.313 25.3267 193.805 27.59C197.361 29.7887 200.142 32.9897 202.147 37.193C204.216 41.3317 205.251 46.2463 205.251 51.937C205.251 57.563 204.216 62.4777 202.147 66.681C200.142 70.8843 197.361 74.1177 193.805 76.381C190.313 78.5797 186.336 79.679 181.874 79.679C177.735 79.679 174.178 78.7413 171.204 76.866C168.229 74.9907 166.063 72.4363 164.705 69.203V104.802H148.118L148.118 24.874L164.705 24.874V34.671C166.063 31.4377 168.229 28.8833 171.204 27.008C174.178 25.1327 177.735 24.195 181.874 24.195ZM176.539 38.745C173.047 38.745 170.169 39.9413 167.906 42.334C165.707 44.662 164.608 47.863 164.608 51.937C164.608 55.9463 165.707 59.1473 167.906 61.54C170.169 63.9327 173.047 65.129 176.539 65.129C180.095 65.129 182.941 63.965 185.075 61.637C187.273 59.309 188.373 56.0757 188.373 51.937C188.373 47.7983 187.273 44.565 185.075 42.237C182.941 39.909 180.095 38.745 176.539 38.745ZM212.306 9.645C212.306 7.123 213.211 5.05366 215.022 3.437C216.832 1.75566 219.225 0.914994 222.2 0.914994C225.174 0.914994 227.567 1.75566 229.378 3.437C231.188 5.05366 232.094 7.123 232.094 9.645C232.094 12.1023 231.188 14.1717 229.378 15.853C227.567 17.4697 225.174 18.278 222.2 18.278C219.225 18.278 216.832 17.4697 215.022 15.853C213.211 14.1717 212.306 12.1023 212.306 9.645ZM230.445 24.874L230.445 79L213.858 79L213.858 24.874H230.445ZM258.484 35.059C260.553 31.761 263.204 29.142 266.438 27.202C269.736 25.262 273.292 24.292 277.108 24.292V42.043H272.355C267.957 42.043 264.53 42.9807 262.073 44.856C259.68 46.7313 258.484 49.9 258.484 54.362V79H241.897L241.897 24.874H258.484V35.059ZM335.46 50.482C335.46 51.84 335.298 53.3273 334.975 54.944L297.436 54.944C297.63 59.018 298.665 61.9603 300.54 63.771C302.415 65.517 304.808 66.39 307.718 66.39C310.175 66.39 312.212 65.7757 313.829 64.547C315.446 63.3183 316.513 61.734 317.03 59.794H334.587C333.876 63.6093 332.324 67.0367 329.931 70.076C327.538 73.0507 324.499 75.411 320.813 77.157C317.127 78.8383 313.021 79.679 308.494 79.679C303.191 79.679 298.471 78.5797 294.332 76.381C290.258 74.1177 287.057 70.8843 284.729 66.681C282.401 62.4777 281.237 57.563 281.237 51.937C281.237 46.2463 282.369 41.3317 284.632 37.193C286.96 32.9897 290.193 29.7887 294.332 27.59C298.471 25.3267 303.191 24.195 308.494 24.195C313.861 24.195 318.582 25.2943 322.656 27.493C326.73 29.6917 329.866 32.7957 332.065 36.805C334.328 40.7497 335.46 45.3087 335.46 50.482ZM318.679 47.96C318.744 44.4033 317.774 41.752 315.769 40.006C313.829 38.1953 311.404 37.29 308.494 37.29C305.455 37.29 302.933 38.1953 300.928 40.006C298.923 41.8167 297.792 44.468 297.533 47.96L318.679 47.96Z" fill="#200559"/>
</g>
</svg>
