<svg width="92" height="43" viewBox="0 0 92 43" fill="none" xmlns="http://www.w3.org/2000/svg">
<path d="M19.57 35.344C19.418 35.6733 19.1393 35.9647 18.734 36.218C18.354 36.4713 17.9867 36.598 17.632 36.598C17.1507 36.598 16.606 36.3447 15.998 35.838C15.4153 35.3567 14.7947 34.698 14.136 33.862C13.4773 33.0513 12.806 32.114 12.122 31.05C11.438 29.986 10.7793 28.8967 10.146 27.782C9.538 26.6673 8.95533 25.5653 8.398 24.476C7.866 23.3613 7.41 22.3607 7.03 21.474C6.29533 23.982 5.59867 26.4267 4.94 28.808C4.30667 31.1893 3.69867 33.3553 3.116 35.306C2.45733 35.306 1.87467 35.1287 1.368 34.774C0.861333 34.4193 0.608 33.9633 0.608 33.406C0.608 33.1273 0.658667 32.7853 0.76 32.38C0.886667 32 1.01333 31.6453 1.14 31.316C1.95067 28.8333 2.72333 26.5153 3.458 24.362C4.19267 22.1833 4.94 20.0807 5.7 18.054C6.46 16.0273 7.24533 14.0007 8.056 11.974C8.86667 9.94733 9.766 7.81933 10.754 5.59C9.94333 5.71666 9.20867 5.90667 8.55 6.16C7.91667 6.388 7.35933 6.62867 6.878 6.882C6.422 7.11 6.042 7.31267 5.738 7.49C5.434 7.66733 5.21867 7.756 5.092 7.756C5.016 7.756 4.91467 7.718 4.788 7.642C4.66133 7.566 4.522 7.47733 4.37 7.376C4.24333 7.27467 4.12933 7.17333 4.028 7.072C3.952 6.94533 3.914 6.83133 3.914 6.73C4.39533 6.52733 4.95267 6.312 5.586 6.084C6.21933 5.83067 6.90333 5.60267 7.638 5.4C8.37267 5.172 9.14533 4.99466 9.956 4.868C10.7667 4.716 11.6027 4.64 12.464 4.64C13.5533 4.64 14.668 4.77933 15.808 5.058C16.948 5.31133 17.974 5.72933 18.886 6.312C19.8233 6.86933 20.5833 7.604 21.166 8.516C21.774 9.40267 22.078 10.4793 22.078 11.746C22.078 12.9873 21.7867 14.064 21.204 14.976C20.6213 15.8627 19.874 16.61 18.962 17.218C18.0753 17.826 17.0747 18.32 15.96 18.7C14.8707 19.0547 13.794 19.3333 12.73 19.536C11.6913 19.7133 10.7287 19.84 9.842 19.916C8.98067 19.9667 8.33467 19.992 7.904 19.992C8.68933 21.3347 9.424 22.6393 10.108 23.906C10.8173 25.1727 11.6027 26.4393 12.464 27.706C13.3253 28.9473 14.3133 30.2013 15.428 31.468C16.568 32.7347 17.9487 34.0267 19.57 35.344ZM19.532 10.948C19.532 9.90933 19.3293 9.048 18.924 8.364C18.544 7.65467 18.0373 7.08467 17.404 6.654C16.7707 6.22333 16.0487 5.91933 15.238 5.742C14.4273 5.53933 13.5913 5.438 12.73 5.438C11.8433 7.186 10.9693 9.28866 10.108 11.746C9.24667 14.178 8.42333 16.724 7.638 19.384C9.006 19.308 10.3993 19.0927 11.818 18.738C13.2367 18.3833 14.516 17.864 15.656 17.18C16.796 16.496 17.7207 15.6473 18.43 14.634C19.1647 13.5953 19.532 12.3667 19.532 10.948ZM31.2693 21.702C31.3706 21.7273 31.5226 21.7653 31.7253 21.816C31.9279 21.8413 32.1306 21.892 32.3333 21.968C32.5359 22.044 32.7133 22.1453 32.8653 22.272C33.0173 22.3987 33.0933 22.538 33.0933 22.69C33.0933 22.7913 32.9539 23.1333 32.6753 23.716C32.4219 24.2987 32.1306 24.9953 31.8013 25.806C31.4973 26.5913 31.2059 27.4147 30.9273 28.276C30.6739 29.112 30.5472 29.8467 30.5472 30.48C30.5472 30.936 30.6359 31.3033 30.8132 31.582C31.0159 31.8607 31.3453 32 31.8013 32C32.2066 32 32.6753 31.8607 33.2073 31.582C33.7393 31.3033 34.2966 30.9107 34.8793 30.404C35.4619 29.872 36.0319 29.226 36.5893 28.466C37.1719 27.706 37.6913 26.832 38.1473 25.844L38.6413 26.186C38.2359 27.2247 37.7293 28.1747 37.1213 29.036C36.5386 29.872 35.9053 30.594 35.2213 31.202C34.5373 31.81 33.8279 32.2787 33.0933 32.608C32.3839 32.9627 31.6873 33.14 31.0033 33.14C29.9899 33.14 29.2933 32.8613 28.9133 32.304C28.5333 31.772 28.3433 31.1133 28.3433 30.328C28.3433 30.024 28.3686 29.72 28.4193 29.416C28.4699 29.0867 28.5333 28.7573 28.6093 28.428C28.2546 29.0613 27.8873 29.6693 27.5073 30.252C27.1273 30.8093 26.7219 31.3033 26.2913 31.734C25.8859 32.1647 25.4553 32.5067 24.9993 32.76C24.5686 33.0133 24.1126 33.14 23.6313 33.14C22.7699 33.14 22.0733 32.76 21.5413 32C21.0346 31.24 20.7812 30.3407 20.7812 29.302C20.7812 28.5927 20.8953 27.744 21.1233 26.756C21.3766 25.7427 21.6679 24.7927 21.9973 23.906C22.3519 23.0193 22.7193 22.2593 23.0993 21.626C23.5046 20.9927 23.8466 20.676 24.1253 20.676C24.2519 20.676 24.4673 20.752 24.7713 20.904C25.0753 21.0307 25.3286 21.208 25.5312 21.436C25.3286 21.7653 25.0753 22.234 24.7713 22.842C24.4926 23.4247 24.2139 24.0707 23.9353 24.78C23.6819 25.4893 23.4539 26.224 23.2513 26.984C23.0739 27.744 22.9853 28.4407 22.9853 29.074C22.9853 29.226 22.9979 29.454 23.0233 29.758C23.0486 30.0367 23.0993 30.3153 23.1753 30.594C23.2766 30.8727 23.4159 31.1133 23.5933 31.316C23.7959 31.5187 24.0493 31.62 24.3533 31.62C24.9359 31.62 25.5566 31.24 26.2153 30.48C26.8739 29.72 27.5199 28.808 28.1533 27.744C28.7866 26.68 29.3693 25.5907 29.9013 24.476C30.4586 23.336 30.9146 22.4113 31.2693 21.702ZM42.1925 32.988C41.5338 32.988 41.0018 32.912 40.5965 32.76C40.1911 32.608 39.9885 32.456 39.9885 32.304C39.9885 32.2027 40.0771 32.1393 40.2545 32.114C40.4318 32.114 40.6598 32.114 40.9385 32.114C41.9518 32.114 42.9271 31.8607 43.8645 31.354C44.8018 30.8473 45.6251 30.2013 46.3345 29.416C47.0438 28.6053 47.6138 27.706 48.0445 26.718C48.4751 25.73 48.6905 24.7547 48.6905 23.792C48.6905 22.9813 48.5131 22.2973 48.1585 21.74C47.8291 21.1573 47.2845 20.866 46.5245 20.866C45.8658 20.866 45.2071 21.0813 44.5485 21.512C43.8898 21.9427 43.2818 22.4747 42.7245 23.108C42.1671 23.7413 41.6605 24.4127 41.2045 25.122C40.7738 25.806 40.4445 26.4267 40.2165 26.984C39.7605 28.884 39.3045 30.7207 38.8485 32.494C38.3925 34.2673 37.9491 35.8507 37.5185 37.244C37.1131 38.6627 36.7458 39.828 36.4165 40.74C36.0618 41.6773 35.7705 42.2473 35.5425 42.45C35.4158 42.5767 35.2638 42.64 35.0865 42.64C34.9345 42.64 34.7825 42.564 34.6305 42.412C34.4785 42.2853 34.3518 42.1333 34.2505 41.956C34.1238 41.804 34.0351 41.652 33.9845 41.5C33.9338 41.348 33.9085 41.2467 33.9085 41.196C34.2125 40.1573 34.5038 39.22 34.7825 38.384C35.0611 37.5733 35.3525 36.75 35.6565 35.914C35.9351 35.078 36.2138 34.166 36.4925 33.178C36.7711 32.2153 37.0498 31.0753 37.3285 29.758C37.6071 28.4153 37.8858 26.832 38.1645 25.008C38.4685 23.184 38.7725 21.0053 39.0765 18.472C39.1018 18.244 39.1525 18.0793 39.2285 17.978C39.3045 17.8767 39.4945 17.826 39.7985 17.826C40.4571 17.826 40.9258 18.016 41.2045 18.396C41.4831 18.7507 41.6225 19.1433 41.6225 19.574C41.6225 19.9287 41.5465 20.562 41.3945 21.474C41.2425 22.386 41.0271 23.4627 40.7485 24.704C41.0778 24.0707 41.4578 23.4247 41.8885 22.766C42.3445 22.1073 42.8511 21.512 43.4085 20.98C43.9658 20.4227 44.5738 19.9793 45.2325 19.65C45.8911 19.2953 46.5878 19.118 47.3225 19.118C48.4625 19.118 49.3871 19.5233 50.0965 20.334C50.8058 21.1193 51.1605 22.158 51.1605 23.45C51.1605 24.438 50.9325 25.4893 50.4765 26.604C50.0458 27.7187 49.4251 28.7573 48.6145 29.72C47.8291 30.6573 46.8918 31.43 45.8025 32.038C44.7131 32.6713 43.5098 32.988 42.1925 32.988ZM62.6213 29.606C61.9373 29.606 61.3293 29.4793 60.7973 29.226C59.9107 30.366 58.9607 31.316 57.9473 32.076C56.934 32.836 55.946 33.216 54.9833 33.216C53.894 33.216 53.1213 32.874 52.6653 32.19C52.2093 31.5313 51.9813 30.7207 51.9813 29.758C51.9813 28.9727 52.108 28.162 52.3613 27.326C52.6147 26.4647 52.944 25.6793 53.3493 24.97C53.7547 24.2607 54.2233 23.678 54.7553 23.222C55.2873 22.7407 55.8193 22.5 56.3513 22.5C56.5793 22.5 56.8453 22.5633 57.1493 22.69C56.9213 22.8927 56.6427 23.2727 56.3133 23.83C56.0093 24.3873 55.718 25.008 55.4393 25.692C55.1607 26.376 54.92 27.06 54.7173 27.744C54.54 28.428 54.4513 29.0107 54.4513 29.492C54.4513 30.252 54.5653 30.8093 54.7933 31.164C55.0467 31.4933 55.3887 31.658 55.8193 31.658C56.3513 31.658 56.9847 31.3793 57.7193 30.822C58.454 30.2393 59.176 29.5047 59.8853 28.618C59.1507 28.0353 58.5933 27.2753 58.2133 26.338C57.8333 25.3753 57.6433 24.4 57.6433 23.412C57.6433 22.7787 57.7193 22.1833 57.8713 21.626C58.0487 21.0433 58.2893 20.5367 58.5933 20.106C58.9227 19.65 59.3153 19.2953 59.7713 19.042C60.2273 18.7633 60.7593 18.624 61.3673 18.624C62.406 18.624 63.1027 18.9027 63.4573 19.46C63.812 20.0173 63.9893 20.714 63.9893 21.55C63.9893 22.538 63.7487 23.64 63.2673 24.856C62.786 26.0467 62.178 27.1993 61.4433 28.314C61.8993 28.5673 62.3807 28.694 62.8873 28.694C63.1913 28.694 63.5207 28.656 63.8753 28.58C64.2553 28.4787 64.6353 28.3267 65.0153 28.124C65.3953 27.896 65.75 27.6173 66.0793 27.288C66.434 26.9333 66.7253 26.49 66.9533 25.958L67.4093 26.338C67.156 26.946 66.8393 27.4527 66.4593 27.858C66.0793 28.2633 65.674 28.6053 65.2433 28.884C64.8127 29.1373 64.3693 29.3273 63.9133 29.454C63.4573 29.5553 63.0267 29.606 62.6213 29.606ZM59.2773 23.526C59.2773 24.2607 59.3787 25.008 59.5813 25.768C59.8093 26.5027 60.1387 27.1233 60.5693 27.63C61.2027 26.6927 61.722 25.7173 62.1273 24.704C62.558 23.6653 62.7733 22.69 62.7733 21.778C62.7733 21.0433 62.6593 20.5113 62.4313 20.182C62.2287 19.8273 61.9627 19.65 61.6333 19.65C61.38 19.65 61.114 19.7513 60.8353 19.954C60.5567 20.1567 60.3033 20.4353 60.0753 20.79C59.8473 21.1193 59.6573 21.5247 59.5053 22.006C59.3533 22.462 59.2773 22.9687 59.2773 23.526ZM76.0822 32.836C75.9302 32.836 75.7402 32.8233 75.5122 32.798C75.3096 32.7727 75.0942 32.722 74.8662 32.646C74.6636 32.5953 74.4862 32.5193 74.3342 32.418C74.2076 32.3167 74.1442 32.2027 74.1442 32.076C74.1442 31.8987 74.2709 31.468 74.5242 30.784C74.7776 30.1 75.0436 29.3273 75.3222 28.466C75.6262 27.5793 75.9049 26.6673 76.1582 25.73C76.4116 24.7927 76.5382 23.9947 76.5382 23.336C76.5382 22.9053 76.4622 22.5633 76.3102 22.31C76.1836 22.0313 75.9429 21.892 75.5882 21.892C75.0309 21.892 74.3596 22.234 73.5742 22.918C72.7889 23.602 71.9782 24.476 71.1422 25.54C70.3316 26.604 69.5462 27.7947 68.7862 29.112C68.0262 30.4293 67.4182 31.734 66.9622 33.026C66.7849 33.026 66.5696 33.0007 66.3162 32.95C66.0882 32.8993 65.8729 32.836 65.6702 32.76C65.4676 32.684 65.2902 32.5953 65.1382 32.494C64.9862 32.418 64.9102 32.3293 64.9102 32.228C64.9102 32.076 65.0496 31.62 65.3282 30.86C65.5816 30.1 65.8729 29.2133 66.2022 28.2C66.5316 27.1613 66.8356 26.0973 67.1142 25.008C67.3929 23.8933 67.5322 22.918 67.5322 22.082C67.6842 21.9047 67.9249 21.7273 68.2542 21.55C68.5836 21.3727 68.9256 21.284 69.2802 21.284C69.9642 21.284 70.3062 21.6133 70.3062 22.272C70.3062 22.6267 70.2049 23.1967 70.0022 23.982C69.8249 24.7673 69.5969 25.6413 69.3182 26.604C69.8249 25.7933 70.3949 24.97 71.0282 24.134C71.6869 23.2727 72.3582 22.4873 73.0422 21.778C73.7516 21.0687 74.4736 20.4987 75.2082 20.068C75.9429 19.612 76.6522 19.384 77.3362 19.384C78.1216 19.384 78.6536 19.6753 78.9322 20.258C79.2362 20.8153 79.3882 21.4867 79.3882 22.272C79.3882 22.7533 79.3376 23.26 79.2362 23.792C79.1602 24.2987 79.0589 24.8053 78.9322 25.312C78.8309 25.7933 78.7042 26.2367 78.5522 26.642C78.4256 27.0473 78.3116 27.3767 78.2102 27.63C78.6156 26.9207 79.0462 26.2113 79.5022 25.502C79.9582 24.7927 80.4522 24.172 80.9842 23.64C81.5162 23.0827 82.0736 22.6393 82.6562 22.31C83.2389 21.9553 83.8596 21.778 84.5182 21.778C85.3289 21.778 85.8862 22.0187 86.1902 22.5C86.5196 22.9813 86.6842 23.5513 86.6842 24.21C86.6842 24.7167 86.6082 25.2613 86.4562 25.844C86.3042 26.4013 86.1396 26.9713 85.9622 27.554C85.8102 28.1113 85.6582 28.656 85.5062 29.188C85.3542 29.6947 85.2782 30.1507 85.2782 30.556C85.2782 30.9107 85.3542 31.2147 85.5062 31.468C85.6836 31.7213 85.9876 31.848 86.4182 31.848C86.9502 31.848 87.4569 31.658 87.9382 31.278C88.4196 30.898 88.8756 30.4167 89.3062 29.834C89.7369 29.226 90.1296 28.58 90.4842 27.896C90.8642 27.1867 91.2062 26.5027 91.5102 25.844L91.9662 26.376C91.6622 27.1867 91.2822 27.9973 90.8262 28.808C90.3956 29.5933 89.9016 30.3153 89.3442 30.974C88.8122 31.6327 88.2042 32.1647 87.5202 32.57C86.8616 32.9753 86.1522 33.178 85.3922 33.178C84.5056 33.178 83.8596 32.8993 83.4542 32.342C83.0489 31.81 82.8462 31.164 82.8462 30.404C82.8462 29.948 82.8969 29.4793 82.9982 28.998C83.1249 28.5167 83.2642 28.048 83.4162 27.592C83.5682 27.1107 83.6949 26.6547 83.7962 26.224C83.9229 25.7933 83.9862 25.388 83.9862 25.008C83.9862 24.5013 83.8722 24.1467 83.6442 23.944C83.4162 23.7413 83.1629 23.64 82.8842 23.64C82.2509 23.64 81.5542 24.134 80.7942 25.122C80.0596 26.0847 79.0969 27.478 77.9062 29.302C77.5009 29.91 77.1589 30.5307 76.8802 31.164C76.6016 31.772 76.3356 32.3293 76.0822 32.836Z" fill="url(#paint0_linear_1762_112967)"/>
<path d="M35.285 0.835V1.625H31.845V4.13H34.785V4.92H31.845V8H30.87V0.835H35.285ZM44.115 8H43.365C43.2783 8 43.2083 7.97833 43.155 7.935C43.1017 7.89167 43.0617 7.83667 43.035 7.77L42.365 6.04H39.15L38.48 7.77C38.4567 7.83 38.4167 7.88333 38.36 7.93C38.3033 7.97667 38.2333 8 38.15 8H37.4L40.265 0.835H41.25L44.115 8ZM39.42 5.34H42.095L40.97 2.425C40.8967 2.245 40.825 2.02 40.755 1.75C40.7183 1.88667 40.6817 2.01333 40.645 2.13C40.6117 2.24333 40.5783 2.34333 40.545 2.43L39.42 5.34ZM48.4319 5.01V8H47.4669V0.835H49.4919C49.9452 0.835 50.3369 0.881666 50.6669 0.975C50.9969 1.065 51.2685 1.19667 51.4819 1.37C51.6985 1.54333 51.8585 1.75333 51.9619 2C52.0652 2.24333 52.1169 2.51667 52.1169 2.82C52.1169 3.07333 52.0769 3.31 51.9969 3.53C51.9169 3.75 51.8002 3.94833 51.6469 4.125C51.4969 4.29833 51.3119 4.44667 51.0919 4.57C50.8752 4.69333 50.6285 4.78667 50.3519 4.85C50.4719 4.92 50.5785 5.02167 50.6719 5.155L52.7619 8H51.9019C51.7252 8 51.5952 7.93167 51.5119 7.795L49.6519 5.235C49.5952 5.155 49.5335 5.09833 49.4669 5.065C49.4002 5.02833 49.3002 5.01 49.1669 5.01H48.4319ZM48.4319 4.305H49.4469C49.7302 4.305 49.9785 4.27167 50.1919 4.205C50.4085 4.135 50.5885 4.03833 50.7319 3.915C50.8785 3.78833 50.9885 3.63833 51.0619 3.465C51.1352 3.29167 51.1719 3.1 51.1719 2.89C51.1719 2.46333 51.0302 2.14167 50.7469 1.925C50.4669 1.70833 50.0485 1.6 49.4919 1.6H48.4319V4.305ZM61.9624 8H60.9874V4.74H57.1274V8H56.1524V0.835H57.1274V4.03H60.9874V0.835H61.9624V8ZM71.956 8H71.206C71.1194 8 71.0494 7.97833 70.996 7.935C70.9427 7.89167 70.9027 7.83667 70.876 7.77L70.206 6.04H66.991L66.321 7.77C66.2977 7.83 66.2577 7.88333 66.201 7.93C66.1444 7.97667 66.0744 8 65.991 8H65.241L68.106 0.835H69.091L71.956 8ZM67.261 5.34H69.936L68.811 2.425C68.7377 2.245 68.666 2.02 68.596 1.75C68.5594 1.88667 68.5227 2.01333 68.486 2.13C68.4527 2.24333 68.4194 2.34333 68.386 2.43L67.261 5.34ZM75.7079 0.835C75.7946 0.835 75.8579 0.846666 75.8979 0.869999C75.9412 0.89 75.9896 0.933333 76.0429 1L80.1929 6.4C80.1829 6.31333 80.1762 6.23 80.1729 6.15C80.1696 6.06667 80.1679 5.98667 80.1679 5.91V0.835H81.0179V8H80.5279C80.4512 8 80.3862 7.98667 80.3329 7.96C80.2829 7.93333 80.2329 7.88833 80.1829 7.825L76.0379 2.43C76.0446 2.51333 76.0496 2.595 76.0529 2.675C76.0562 2.755 76.0579 2.82833 76.0579 2.895V8H75.2079V0.835H75.7079ZM91.0115 8H90.2615C90.1748 8 90.1048 7.97833 90.0515 7.935C89.9981 7.89167 89.9581 7.83667 89.9315 7.77L89.2615 6.04H86.0465L85.3765 7.77C85.3531 7.83 85.3131 7.88333 85.2565 7.93C85.1998 7.97667 85.1298 8 85.0465 8H84.2965L87.1615 0.835H88.1465L91.0115 8ZM86.3165 5.34H88.9915L87.8665 2.425C87.7931 2.245 87.7215 2.02 87.6515 1.75C87.6148 1.88667 87.5781 2.01333 87.5415 2.13C87.5081 2.24333 87.4748 2.34333 87.4415 2.43L86.3165 5.34Z" fill="#04052E"/>
<defs>
<linearGradient id="paint0_linear_1762_112967" x1="45.5" y1="5" x2="45.5" y2="47.5" gradientUnits="userSpaceOnUse">
<stop stop-color="#8E01FC"/>
<stop offset="1" stop-color="#120642"/>
</linearGradient>
</defs>
</svg>
