<svg width="106" height="38" viewBox="0 0 106 38" fill="none" xmlns="http://www.w3.org/2000/svg">
<g clip-path="url(#clip0_1991_113164)">
<path fill-rule="evenodd" clip-rule="evenodd" d="M58.4386 34.3838C58.3649 34.5319 58.2496 34.6555 58.1068 34.7393C57.9735 34.8306 57.8178 34.8839 57.6565 34.8933C57.4103 34.8684 57.1802 34.7596 57.0047 34.5852C56.7261 34.3465 56.472 34.0805 56.2463 33.7912C55.9504 33.4129 55.6774 33.0171 55.4287 32.6062C55.1561 32.1796 54.8835 31.7411 54.6347 31.2908C54.3858 30.8405 54.1488 30.3902 53.9355 29.9399C53.847 29.7531 53.7606 29.5766 53.6788 29.4093L53.6788 29.4093L53.6787 29.4093L53.6787 29.4092L53.6787 29.4092C53.5632 29.1733 53.4568 28.956 53.3667 28.7549C53.0704 29.774 52.7979 30.7576 52.5372 31.7293C52.2765 32.701 52.0276 33.5661 51.7906 34.3482C51.5369 34.3551 51.2876 34.2803 51.0796 34.1349C50.9858 34.078 50.9083 33.9981 50.8543 33.9026C50.8004 33.8072 50.7718 33.6994 50.7715 33.5898C50.7758 33.4489 50.7997 33.3093 50.8426 33.175C50.8426 33.0641 50.8917 32.9532 50.9369 32.8512L50.9369 32.8512C50.9545 32.8115 50.9715 32.7731 50.9848 32.7366C51.1207 32.329 51.2526 31.9293 51.3813 31.5392L51.3813 31.5391L51.3814 31.539C51.567 30.9765 51.746 30.434 51.921 29.9162C52.2172 29.0393 52.5253 28.1979 52.8334 27.3802C53.1415 26.5626 53.4615 25.733 53.7815 24.9154C54.0742 24.1673 54.4165 23.3796 54.7721 22.5612L54.8717 22.332C54.5726 22.3775 54.2788 22.4529 53.9948 22.5572C53.762 22.6376 53.5361 22.7367 53.3193 22.8534L52.8453 23.1023C52.7672 23.1564 52.6782 23.1928 52.5846 23.2089C52.5461 23.2216 52.5046 23.2216 52.4661 23.2089C52.4057 23.182 52.3497 23.146 52.3002 23.1023C52.2449 23.0683 52.1966 23.024 52.158 22.9719C52.1451 22.9294 52.1451 22.8841 52.158 22.8416L52.8334 22.569C53.0941 22.4742 53.3667 22.3794 53.663 22.2965C53.9592 22.2135 54.2673 22.1424 54.5991 22.0831C54.9357 22.0251 55.2768 21.9974 55.6183 22.0002C56.073 21.9995 56.5263 22.0512 56.9692 22.1542C57.4118 22.2578 57.8356 22.4297 58.2253 22.6638C58.5876 22.8938 58.8983 23.1964 59.1378 23.5526C59.3914 23.9434 59.5195 24.4023 59.5052 24.868C59.5156 25.3278 59.3921 25.7807 59.1496 26.1715C58.9154 26.5344 58.6088 26.845 58.249 27.084C57.8821 27.3333 57.4836 27.5325 57.064 27.6765C56.6338 27.8176 56.1943 27.9285 55.7486 28.0083C55.3575 28.0859 54.9616 28.1374 54.5636 28.1623H53.7696C54.0896 28.7075 54.3858 29.2289 54.6702 29.7384C54.955 30.2668 55.2716 30.7773 55.6183 31.2671C55.9766 31.8041 56.3726 32.315 56.8033 32.7958C57.3023 33.3706 57.8494 33.9018 58.4386 34.3838ZM58.4386 24.5125C58.4499 24.1465 58.3684 23.7837 58.2016 23.4578C58.0511 23.1812 57.8355 22.9453 57.5736 22.7705C57.307 22.5938 57.0095 22.4692 56.6966 22.4031C56.3672 22.3215 56.0288 22.2816 55.6894 22.2846C55.2833 23.1118 54.9271 23.9626 54.6228 24.8324C54.2752 25.812 53.9434 26.843 53.6274 27.9253C54.1989 27.8889 54.766 27.8017 55.322 27.6646C55.8669 27.5309 56.3898 27.3194 56.8744 27.0366C57.338 26.7756 57.7417 26.4204 58.0594 25.9937C58.334 25.5506 58.4625 25.0325 58.4268 24.5125H58.4386ZM63.1785 28.8615H63.3563L63.6051 28.9326C63.6812 28.9624 63.753 29.0022 63.8184 29.0511C63.8469 29.0713 63.8704 29.0979 63.8868 29.1288C63.9033 29.1596 63.9123 29.1939 63.9132 29.2289C63.8775 29.3742 63.8216 29.5137 63.7473 29.6436C63.6407 29.8806 63.5222 30.1532 63.4037 30.4732L63.3627 30.5835C63.2557 30.8715 63.1426 31.176 63.0482 31.4804C62.9486 31.7708 62.8927 32.0743 62.8823 32.3811C62.8728 32.5362 62.9144 32.6902 63.0008 32.8195C63.0435 32.882 63.1025 32.9316 63.1715 32.963C63.2404 32.9943 63.3166 33.0062 63.3918 32.9973C63.5935 32.9874 63.7893 32.9262 63.9606 32.8195C64.2062 32.688 64.4333 32.5246 64.6361 32.3337C64.8982 32.1048 65.1328 31.8464 65.3353 31.5634C65.553 31.2709 65.7424 30.9585 65.9009 30.6304C65.9252 30.4841 65.9498 30.334 65.9749 30.1808L65.9771 30.1675C66.0956 29.4447 66.2141 28.544 66.3445 27.5249C66.3257 27.4591 66.3257 27.3893 66.3445 27.3235H66.5696C66.6757 27.3105 66.7833 27.3243 66.8827 27.3637C66.982 27.403 67.07 27.4666 67.1384 27.5486C67.252 27.6806 67.315 27.8486 67.3162 28.0226C67.3014 28.2812 67.2698 28.5385 67.2214 28.7929C67.2214 29.0413 67.1509 29.3222 67.0723 29.6357L67.0723 29.6357L67.0723 29.6357C67.0347 29.7858 66.9952 29.9433 66.9607 30.1083C67.0995 29.835 67.2538 29.5699 67.4228 29.3143C67.6298 29.035 67.8684 28.7805 68.1339 28.5559C68.3491 28.3372 68.5969 28.1533 68.8686 28.0108C69.1295 27.8789 69.4176 27.8099 69.7099 27.8093C69.9221 27.8003 70.1335 27.8394 70.3284 27.9235C70.5233 28.0076 70.6967 28.1347 70.8357 28.2952C71.1312 28.6498 71.2834 29.1021 71.2623 29.5632C71.256 29.9985 71.1675 30.4287 71.0016 30.8312C70.8137 31.2858 70.558 31.7093 70.2432 32.0873C69.9117 32.4785 69.5097 32.8041 69.0582 33.0472C68.6109 33.3021 68.1036 33.4331 67.5887 33.4264C67.3688 33.4267 67.1511 33.3824 66.9488 33.296C66.7829 33.2407 66.7 33.1815 66.7 33.1183L66.8066 33.0472H67.0792C67.4927 33.0489 67.9001 32.947 68.2642 32.7509C68.6381 32.5439 68.9746 32.2755 69.2596 31.9569C69.5493 31.6331 69.7853 31.265 69.9588 30.8667C70.1296 30.4949 70.2185 30.0908 70.2195 29.6817C70.2282 29.3906 70.1543 29.1029 70.0062 28.8522C69.9325 28.7416 69.8284 28.6548 69.7064 28.6023C69.5844 28.5497 69.4498 28.5336 69.3189 28.5559C69.0336 28.5583 68.7561 28.6494 68.5249 28.8166C68.2441 28.9895 67.9922 29.2055 67.7783 29.4565C67.5563 29.7091 67.3543 29.9785 67.174 30.2623C67.0151 30.5013 66.8802 30.7553 66.7711 31.0208C66.7279 31.1962 66.6853 31.3704 66.6431 31.5432C66.4999 32.1292 66.3605 32.6995 66.2141 33.2486C66.0245 33.9596 65.8467 34.6114 65.6808 35.1802C65.5149 35.749 65.3609 36.223 65.2187 36.6023C65.152 36.8487 65.035 37.0787 64.875 37.2777C64.8542 37.3048 64.8272 37.3264 64.7962 37.3408C64.7653 37.3553 64.7314 37.3621 64.6973 37.3607C64.6264 37.3557 64.5594 37.3264 64.5077 37.2777C64.4462 37.2202 64.3906 37.1567 64.3418 37.0881C64.3031 37.0287 64.2713 36.9651 64.247 36.8985C64.2403 36.8553 64.2403 36.8113 64.247 36.7682L64.6025 35.5831C64.6736 35.3838 64.7406 35.1845 64.8083 34.9826L64.8084 34.9825L64.8084 34.9825L64.8084 34.9823C64.8534 34.8482 64.8988 34.713 64.9461 34.5759C65.0646 34.2322 65.1831 33.8767 65.2898 33.4738C65.4279 33.0138 65.5426 32.5471 65.6334 32.0754C65.6718 31.9027 65.709 31.7174 65.7457 31.5214C65.684 31.6247 65.6183 31.7257 65.5486 31.8241C65.3289 32.147 65.0702 32.4416 64.7783 32.701C64.5199 32.9302 64.2331 33.1254 63.9251 33.2817C63.6597 33.4129 63.3679 33.4818 63.0719 33.4831C62.9144 33.5026 62.7545 33.4836 62.606 33.4279C62.4574 33.3722 62.3245 33.2814 62.2186 33.1632C62.0631 32.9238 61.9845 32.6426 61.9935 32.3574C61.9818 32.2312 61.9818 32.1043 61.9935 31.9781C62.0057 31.846 62.0295 31.7151 62.0646 31.5871C61.9224 31.8359 61.7683 32.0848 61.6143 32.3099C61.4777 32.5273 61.3188 32.7299 61.1403 32.9143C60.9861 33.0805 60.806 33.2205 60.607 33.3291C60.4396 33.4319 60.2465 33.4853 60.05 33.4831C59.8833 33.4846 59.7189 33.4441 59.5719 33.3654C59.4249 33.2867 59.3 33.1723 59.2087 33.0328C58.999 32.7041 58.8918 32.3205 58.9005 31.9307C58.909 31.5828 58.9567 31.237 59.0428 30.8998C59.1329 30.4968 59.2517 30.1008 59.3983 29.7147C59.5197 29.3935 59.6705 29.0841 59.8486 28.7904C60.0026 28.5416 60.133 28.4112 60.2515 28.4112C60.3431 28.4211 60.4317 28.4493 60.5122 28.4941C60.6286 28.5484 60.7333 28.6249 60.8203 28.7193C60.7374 28.8496 60.6426 29.0392 60.5241 29.2762L60.5241 29.2762L60.524 29.2763C60.4055 29.5133 60.287 29.7858 60.1804 30.0702C60.07 30.3602 59.979 30.6571 59.9078 30.959C59.8309 31.237 59.791 31.5239 59.7893 31.8122C59.7845 31.8991 59.7845 31.9861 59.7893 32.0729C59.8015 32.1935 59.8253 32.3125 59.8604 32.4284C59.8967 32.5331 59.9531 32.6297 60.0263 32.7129C60.0658 32.7548 60.1136 32.788 60.1667 32.8105C60.2197 32.8329 60.2768 32.8441 60.3344 32.8432C60.4848 32.8243 60.6293 32.7733 60.7581 32.6935C60.8869 32.6138 60.9971 32.5072 61.081 32.3811C61.3797 32.0379 61.6418 31.6646 61.8631 31.2671C62.1238 30.8405 62.3608 30.4021 62.586 29.9399C62.7162 29.6727 62.8464 29.449 62.9605 29.2529L62.9605 29.2529C63.0438 29.1099 63.1185 28.9815 63.1785 28.8615ZM75.8583 32.1072C75.6048 32.1135 75.3532 32.0608 75.1236 31.9532C74.7836 32.3996 74.385 32.7982 73.9386 33.1382C73.6052 33.4185 73.1886 33.5809 72.7535 33.6004C72.5762 33.6178 72.3973 33.59 72.2335 33.5195C72.0698 33.449 71.9267 33.3382 71.8174 33.1974C71.6307 32.8996 71.5359 32.5534 71.5448 32.202C71.5456 31.8643 71.5975 31.5287 71.6989 31.2066C71.793 30.8806 71.9242 30.5665 72.0899 30.2704C72.2376 29.9992 72.4299 29.7549 72.6587 29.5476C72.8348 29.3776 73.0661 29.2766 73.3105 29.2631C73.4222 29.2653 73.5318 29.2937 73.6305 29.3461C73.4978 29.483 73.386 29.6388 73.2987 29.8083C73.1615 30.0478 73.0426 30.2974 72.9431 30.5548C72.8291 30.8243 72.734 31.1015 72.6587 31.3844C72.5863 31.6147 72.5465 31.854 72.5402 32.0954C72.5219 32.3257 72.5713 32.5564 72.6824 32.759C72.7281 32.8265 72.7901 32.8814 72.8625 32.9187C72.935 32.9559 73.0157 32.9744 73.0972 32.9723C73.3834 32.9405 73.6526 32.8204 73.8675 32.6286C74.1887 32.3624 74.4825 32.0647 74.7444 31.7399C74.4357 31.4998 74.1981 31.1803 74.0571 30.8155C73.9073 30.4385 73.8309 30.0363 73.8319 29.6305C73.8328 29.3865 73.8646 29.1436 73.9267 28.9076C73.989 28.6866 74.0892 28.4781 74.223 28.2914C74.3481 28.1165 74.5099 27.9709 74.697 27.8648C74.8902 27.7499 75.1122 27.6924 75.3369 27.6989C75.4951 27.6752 75.6567 27.6946 75.8048 27.7551C75.9529 27.8155 76.0819 27.9149 76.1783 28.0426C76.3387 28.2929 76.4174 28.5869 76.4034 28.8839C76.3873 29.3408 76.2869 29.7908 76.1072 30.2112C75.9122 30.7056 75.6659 31.1782 75.3725 31.6214C75.5505 31.7194 75.7499 31.7723 75.9531 31.7754C76.0893 31.7715 76.2245 31.7516 76.356 31.7162C76.5174 31.6779 76.6728 31.6181 76.8182 31.5384C76.9773 31.4415 77.1245 31.3261 77.2566 31.1948C77.3689 31.0705 77.4646 30.9325 77.5417 30.7843C77.5859 30.6245 77.6295 30.4621 77.6731 30.2965C77.781 29.9107 77.8368 29.5121 77.839 29.1115C77.9247 29.0239 78.0249 28.9517 78.1352 28.8982C78.2624 28.8284 78.405 28.7918 78.55 28.7915C78.8225 28.7915 78.9647 28.9219 78.9647 29.1826C78.953 29.4195 78.9133 29.6542 78.8462 29.8818C78.7751 30.2017 78.6803 30.5454 78.5618 30.9364C78.583 30.9046 78.6043 30.8726 78.6258 30.8404C78.8202 30.5482 79.0262 30.2387 79.261 29.9292C79.5118 29.5988 79.785 29.286 80.0787 28.993C80.3343 28.7222 80.6253 28.487 80.9437 28.2938C81.2022 28.1266 81.5011 28.0324 81.8088 28.0213C81.9393 28.0077 82.0708 28.0332 82.1868 28.0943C82.3028 28.1555 82.398 28.2497 82.4606 28.3649C82.5832 28.6197 82.6441 28.8999 82.6383 29.1826C82.6553 29.3876 82.6553 29.5938 82.6383 29.7988C82.6383 29.9534 82.5965 30.115 82.5556 30.2728C82.5432 30.3206 82.5309 30.3682 82.5198 30.415C82.4724 30.6165 82.425 30.7942 82.3658 30.9601L82.2236 31.3512C82.3895 31.0668 82.5554 30.7824 82.745 30.498C82.9136 30.2239 83.1123 29.9695 83.3375 29.7396C83.5432 29.5302 83.7741 29.3471 84.0248 29.1944C84.2519 29.0634 84.5092 28.994 84.7714 28.993C84.9006 28.9785 85.0315 28.997 85.1516 29.0467C85.2718 29.0965 85.3775 29.1758 85.4587 29.2774C85.5933 29.485 85.6596 29.7294 85.6483 29.9766C85.6434 30.1969 85.6116 30.4158 85.5535 30.6283C85.5434 30.6669 85.5332 30.7058 85.523 30.7449C85.4736 30.9343 85.4228 31.129 85.3639 31.3157C85.3081 31.4922 85.2597 31.6687 85.2128 31.8395C85.1999 31.8866 85.1871 31.9332 85.1743 31.9793C85.1179 32.1598 85.086 32.3472 85.0795 32.5362C85.0752 32.6669 85.1125 32.7956 85.1861 32.9036C85.2252 32.9598 85.2791 33.0041 85.3419 33.0313C85.4048 33.0585 85.4739 33.0676 85.5417 33.0576C85.7666 33.0544 85.9838 32.975 86.1579 32.8325C86.3667 32.6581 86.5537 32.4592 86.7148 32.24C86.8918 31.9913 87.0502 31.7298 87.1889 31.4579C87.3429 31.1735 87.4732 30.9011 87.6035 30.6286L87.6036 30.6283L87.7814 30.8535C87.6559 31.1883 87.5054 31.5131 87.331 31.8252C87.1571 32.1365 86.959 32.4337 86.7385 32.714C86.5247 32.965 86.2728 33.181 85.992 33.3539C85.7328 33.5167 85.4329 33.603 85.1269 33.6028C84.9796 33.6131 84.832 33.5884 84.696 33.5307C84.5601 33.473 84.4397 33.384 84.3448 33.271C84.1765 33.041 84.089 32.7618 84.0959 32.477C84.0976 32.2853 84.1215 32.0944 84.167 31.9082C84.2113 31.7116 84.2667 31.5178 84.3329 31.3275C84.3329 31.2038 84.3783 31.0852 84.423 30.9683C84.4469 30.906 84.4705 30.8442 84.487 30.7824C84.5329 30.6245 84.5568 30.461 84.5581 30.2965C84.5677 30.2193 84.5599 30.1409 84.5353 30.0671C84.5107 29.9933 84.4699 29.9259 84.4159 29.8699C84.3759 29.8285 84.3281 29.7957 84.2751 29.7733C84.2222 29.7509 84.1653 29.7394 84.1078 29.7396C83.8589 29.7396 83.5745 29.941 83.2782 30.3321C82.982 30.7231 82.5791 31.292 82.0932 32.0267C81.9415 32.2678 81.803 32.517 81.6785 32.7732C81.5326 32.9191 81.4325 33.1108 81.3379 33.292C81.325 33.3168 81.3121 33.3414 81.2992 33.3658H81.0741H80.8134C80.7384 33.3437 80.6667 33.3118 80.6001 33.271C80.5758 33.2557 80.5556 33.2348 80.5411 33.21C80.5267 33.1853 80.5185 33.1574 80.5171 33.1287C80.5442 32.9487 80.5961 32.7732 80.6712 32.6073C80.7778 32.3348 80.8845 32.0148 81.003 31.6593C81.1215 31.3038 81.2281 30.9483 81.3348 30.5691C81.4235 30.2522 81.4751 29.9261 81.4888 29.5974C81.4915 29.4509 81.4632 29.3055 81.4059 29.1707C81.3746 29.1184 81.3289 29.076 81.2743 29.0487C81.2198 29.0214 81.1585 29.0103 81.0978 29.0167C80.7876 29.052 80.501 29.1995 80.292 29.4315C79.9296 29.7491 79.6 30.1025 79.3084 30.4861C78.956 30.9457 78.6353 31.4287 78.3485 31.9319C78.0505 32.4349 77.8043 32.967 77.6138 33.5198H77.3531L77.0924 33.4369C77.0174 33.4148 76.9457 33.3829 76.8791 33.3421C76.808 33.3421 76.7843 33.271 76.7843 33.2236C76.8162 33.0369 76.8679 32.8542 76.9383 32.6784C76.9552 32.6298 76.9726 32.5796 76.9905 32.5281C77.0862 32.2531 77.1959 31.9375 77.3057 31.5882C77.3151 31.5583 77.3244 31.5284 77.3337 31.4984C77.2018 31.6288 77.0569 31.7455 76.9011 31.8465C76.737 31.9504 76.5568 32.0265 76.3679 32.0717C76.2001 32.1041 76.029 32.1161 75.8583 32.1072ZM74.5074 29.6424C74.5042 29.9475 74.5482 30.2513 74.6377 30.543C74.7072 30.8228 74.8411 31.0825 75.0288 31.3014C75.2767 30.9261 75.4908 30.5295 75.6687 30.1164C75.8272 29.7411 75.9117 29.3387 75.9176 28.9313C75.9306 28.7027 75.8857 28.4745 75.7872 28.2677C75.7542 28.2082 75.7063 28.1582 75.6481 28.1229C75.5899 28.0876 75.5235 28.0681 75.4554 28.0663C75.3391 28.0721 75.2275 28.1135 75.1355 28.1848C75.0153 28.2777 74.9112 28.3898 74.8273 28.5166C74.7289 28.6709 74.6531 28.8385 74.6022 29.0143C74.5377 29.201 74.5056 29.3974 74.5074 29.595V29.6424Z" fill="url(#paint0_linear_1991_113164)"/>
<path d="M15.6408 0C13.7096 0.0151035 11.8392 0.677564 10.329 1.88137C8.81882 3.08518 7.75606 4.76076 7.31078 6.64001C5.2872 6.96127 3.44451 7.99363 2.1138 9.55162C0.7831 11.1096 0.0516154 13.0911 0.0507812 15.14V37.46C2.33879 37.4574 4.53232 36.5473 6.15019 34.9294C7.76805 33.3115 8.67813 31.118 8.68078 28.83V8.63H18.5708C20.8596 8.63 23.0547 7.72077 24.6731 6.10233C26.2916 4.48389 27.2008 2.28882 27.2008 0H15.6408ZM7.02078 28.83C7.02371 30.4123 6.49045 31.949 5.50797 33.1893C4.52549 34.4297 3.15175 35.3006 1.61078 35.66V15.14C1.60785 13.5577 2.14111 12.021 3.12359 10.7807C4.10607 9.54032 5.47981 8.66942 7.02078 8.31001V8.62V28.83ZM18.5208 7.02H8.81078C9.17019 5.47903 10.0411 4.10529 11.2815 3.12281C12.5218 2.14033 14.0585 1.60707 15.6408 1.61H25.3608C25.001 3.15265 24.1286 4.52765 22.8862 5.51031C21.6438 6.49298 20.1048 7.0252 18.5208 7.02Z" fill="url(#paint1_linear_1991_113164)"/>
<path d="M17.0802 15.2119C17.4063 16.1348 17.9347 16.9731 18.6269 17.6652C19.319 18.3573 20.1573 18.8858 21.0802 19.2119C20.1562 19.5361 19.3169 20.0639 18.6246 20.7563C17.9322 21.4487 17.4043 22.2879 17.0802 23.2119C16.7573 22.2872 16.2299 21.4473 15.5374 20.7547C14.8448 20.0621 14.0049 19.5348 13.0802 19.2119C14.0042 18.8877 14.8434 18.3599 15.5358 17.6675C16.2282 16.9751 16.756 16.1359 17.0802 15.2119ZM17.0802 14.4219C17.0159 14.4212 16.9528 14.4399 16.8993 14.4756C16.8458 14.5113 16.8043 14.5623 16.7802 14.6219C16.4835 15.6291 15.9391 16.5459 15.1966 17.2883C14.4542 18.0308 13.5374 18.5753 12.5302 18.8719C12.4698 18.8968 12.4182 18.9391 12.3819 18.9934C12.3456 19.0477 12.3262 19.1116 12.3262 19.1769C12.3262 19.2422 12.3456 19.3061 12.3819 19.3604C12.4182 19.4147 12.4698 19.457 12.5302 19.4819C13.5361 19.781 14.4516 20.3263 15.1937 21.0684C15.9358 21.8105 16.4811 22.7259 16.7802 23.7319C16.8027 23.7934 16.8435 23.8465 16.8972 23.884C16.9508 23.9216 17.0147 23.9418 17.0802 23.9419C17.147 23.9424 17.2125 23.9226 17.2678 23.8851C17.3232 23.8476 17.3659 23.7942 17.3902 23.7319C17.6876 22.7251 18.2324 21.8088 18.9747 21.0664C19.717 20.3241 20.6334 19.7794 21.6402 19.4819C21.7006 19.457 21.7522 19.4147 21.7885 19.3604C21.8248 19.3061 21.8442 19.2422 21.8442 19.1769C21.8442 19.1116 21.8248 19.0477 21.7885 18.9934C21.7522 18.9391 21.7006 18.8968 21.6402 18.8719C20.6321 18.5769 19.7145 18.033 18.9718 17.2903C18.229 16.5476 17.6852 15.63 17.3902 14.6219C17.3632 14.5623 17.3196 14.5117 17.2647 14.4762C17.2097 14.4407 17.1456 14.4219 17.0802 14.4219Z" fill="#04052E" stroke="#04052E" stroke-width="0.3" stroke-miterlimit="10"/>
<path d="M38.0804 8.21047H32.7504V12.1205H37.8604V13.6305H32.7504V18.7305H31.1504V6.73047H38.0804V8.21047Z" fill="#04052E"/>
<path d="M48.7295 10.1421H50.2295V18.7321H48.7295V17.2621C48.3876 17.8085 47.9062 18.254 47.335 18.5528C46.7639 18.8515 46.1234 18.9928 45.4795 18.9621C44.9031 18.9714 44.3311 18.8596 43.8005 18.6339C43.27 18.4083 42.7927 18.0738 42.3995 17.6521C41.5833 16.7826 41.1289 15.6347 41.1289 14.4421C41.1289 13.2495 41.5833 12.1016 42.3995 11.2321C42.7927 10.8104 43.27 10.4759 43.8005 10.2502C44.3311 10.0246 44.9031 9.91279 45.4795 9.92209C46.1234 9.89137 46.7639 10.0327 47.335 10.3314C47.9062 10.6302 48.3876 11.0757 48.7295 11.6221V10.1421ZM45.6695 17.5221C46.0746 17.532 46.4774 17.458 46.8525 17.3049C47.2277 17.1517 47.5671 16.9227 47.8495 16.6321C48.4131 16.0423 48.7276 15.2579 48.7276 14.4421C48.7276 13.6263 48.4131 12.8419 47.8495 12.2521C47.2696 11.6811 46.4884 11.361 45.6745 11.361C44.8607 11.361 44.0795 11.6811 43.4995 12.2521C42.936 12.8419 42.6214 13.6263 42.6214 14.4421C42.6214 15.2579 42.936 16.0423 43.4995 16.6321C43.7829 16.9186 44.1211 17.145 44.494 17.2979C44.8668 17.4509 45.2666 17.5271 45.6695 17.5221Z" fill="#04052E"/>
<path d="M55.7302 11.5806C55.9593 11.0694 56.3406 10.6413 56.822 10.3549C57.3035 10.0686 57.8617 9.93782 58.4202 9.9806V11.5506C57.737 11.5024 57.0601 11.709 56.5202 12.1306C56.2486 12.3846 56.0368 12.6958 55.9002 13.0417C55.7636 13.3876 55.7055 13.7595 55.7302 14.1306V18.7306H54.2402V10.1306H55.7302V11.5806Z" fill="#04052E"/>
<path d="M65.9011 9.92047C66.3539 9.90502 66.8048 9.98621 67.2238 10.1586C67.6428 10.3311 68.0203 10.5908 68.3311 10.9205C68.9656 11.6292 69.2929 12.5607 69.2411 13.5105V18.7305H67.7411V13.5305C67.759 13.2361 67.7178 12.9411 67.6199 12.6628C67.522 12.3846 67.3694 12.1288 67.1711 11.9105C66.9643 11.7126 66.7193 11.5591 66.451 11.4593C66.1827 11.3596 65.8969 11.3157 65.6111 11.3305C65.2776 11.3177 64.9451 11.3732 64.6338 11.4936C64.3226 11.614 64.0392 11.7967 63.8011 12.0305C63.5508 12.3242 63.3611 12.6644 63.2426 13.0316C63.1242 13.3989 63.0795 13.7859 63.1111 14.1705V18.7305H61.6211V6.73047H63.1111V11.4105C63.3955 10.9308 63.806 10.5383 64.2979 10.2756C64.7898 10.0129 65.3443 9.89004 65.9011 9.92047Z" fill="#04052E"/>
<path d="M80.1807 10.1421H81.6807V18.7321H80.1807V17.2621C79.8387 17.8085 79.3574 18.254 78.7862 18.5528C78.215 18.8515 77.5746 18.9928 76.9307 18.9621C76.3542 18.972 75.782 18.8605 75.2513 18.6348C74.7207 18.4091 74.2435 18.0743 73.8507 17.6521C73.0344 16.7826 72.5801 15.6347 72.5801 14.4421C72.5801 13.2495 73.0344 12.1016 73.8507 11.2321C74.2435 10.8099 74.7207 10.4751 75.2513 10.2494C75.782 10.0237 76.3542 9.91217 76.9307 9.92209C77.5746 9.89137 78.215 10.0327 78.7862 10.3314C79.3574 10.6302 79.8387 11.0757 80.1807 11.6221V10.1421ZM77.1207 17.5221C77.5275 17.5334 77.9321 17.4601 78.3091 17.3069C78.6861 17.1537 79.0271 16.9239 79.3107 16.6321C79.8743 16.0423 80.1888 15.2579 80.1888 14.4421C80.1888 13.6263 79.8743 12.8419 79.3107 12.2521C78.7308 11.6811 77.9496 11.361 77.1357 11.361C76.3219 11.361 75.5406 11.6811 74.9607 12.2521C74.3971 12.8419 74.0826 13.6263 74.0826 14.4421C74.0826 15.2579 74.3971 16.0423 74.9607 16.6321C75.2429 16.9174 75.5795 17.1431 75.9505 17.296C76.3215 17.4489 76.7195 17.5257 77.1207 17.5221Z" fill="#04052E"/>
<path d="M89.9695 9.91997C90.4209 9.90401 90.8704 9.98501 91.2879 10.1575C91.7054 10.33 92.081 10.59 92.3895 10.92C93.0266 11.6277 93.3574 12.5589 93.3094 13.51V18.73H91.8094V13.53C91.8273 13.2356 91.7861 12.9406 91.6882 12.6623C91.5904 12.3841 91.4377 12.1283 91.2394 11.91C91.0323 11.7126 90.7872 11.5594 90.5191 11.4597C90.2509 11.36 89.9652 11.3158 89.6794 11.33C89.346 11.3172 89.0134 11.3727 88.7022 11.4931C88.3909 11.6135 88.1076 11.7962 87.8694 12.03C87.6192 12.3237 87.4294 12.6639 87.311 13.0311C87.1926 13.3984 87.1479 13.7854 87.1794 14.17V18.73H85.6895V10.13H87.1794V11.37C87.469 10.8977 87.8817 10.5132 88.3732 10.2577C88.8647 10.0023 89.4166 9.88551 89.9695 9.91997Z" fill="#04052E"/>
<path d="M104.251 10.1418H105.751V18.7318H104.251V17.2618C103.908 17.8075 103.426 18.2524 102.855 18.5511C102.284 18.8498 101.644 18.9915 101.001 18.9618C100.424 18.9718 99.8519 18.8602 99.3213 18.6346C98.7907 18.4089 98.3135 18.074 97.9207 17.6518C97.0999 16.7846 96.6426 15.6359 96.6426 14.4418C96.6426 13.2478 97.0999 12.0991 97.9207 11.2318C98.3135 10.8096 98.7907 10.4748 99.3213 10.2491C99.8519 10.0234 100.424 9.9119 101.001 9.92183C101.644 9.89215 102.284 10.0339 102.855 10.3326C103.426 10.6312 103.908 11.0762 104.251 11.6218V10.1418ZM101.191 17.5218C101.596 17.5317 101.999 17.4578 102.374 17.3046C102.749 17.1514 103.088 16.9224 103.371 16.6318C103.934 16.042 104.249 15.2576 104.249 14.4418C104.249 13.626 103.934 12.8416 103.371 12.2518C102.791 11.6808 102.01 11.3608 101.196 11.3608C100.382 11.3608 99.6006 11.6808 99.0207 12.2518C98.4571 12.8416 98.1426 13.626 98.1426 14.4418C98.1426 15.2576 98.4571 16.042 99.0207 16.6318C99.3016 16.9216 99.6393 17.1503 100.013 17.3034C100.386 17.4566 100.787 17.5309 101.191 17.5218Z" fill="#04052E"/>
</g>
<defs>
<linearGradient id="paint0_linear_1991_113164" x1="82.2591" y1="41.3055" x2="82.2591" y2="30.8061" gradientUnits="userSpaceOnUse">
<stop stop-color="#8F00FF" stop-opacity="0.5"/>
<stop offset="1" stop-color="#8F00FF"/>
</linearGradient>
<linearGradient id="paint1_linear_1991_113164" x1="13.5708" y1="41.56" x2="13.5708" y2="21.92" gradientUnits="userSpaceOnUse">
<stop stop-color="#8F00FF" stop-opacity="0.5"/>
<stop offset="1" stop-color="#8F00FF"/>
</linearGradient>
<clipPath id="clip0_1991_113164">
<rect width="105.74" height="37.45" fill="white"/>
</clipPath>
</defs>
</svg>
