<svg width="80" height="9" viewBox="0 0 80 9" fill="none" xmlns="http://www.w3.org/2000/svg">
<path d="M2.75943 7.0601C2.98287 6.89647 3.19121 6.72615 3.40257 6.53579C3.61393 6.34544 3.84945 6.16176 4.06986 5.9714C4.59525 5.52056 5.09949 5.04301 5.60676 4.56545L5.21423 5.15655C5.08741 5.35024 4.95758 5.5406 4.83076 5.73095L4.62544 6.04153C4.55004 6.14993 4.48621 6.2676 4.43522 6.39219C4.38388 6.51242 4.34463 6.63931 4.30236 6.75954C4.27434 6.86717 4.27331 6.98121 4.29937 7.08945C4.32543 7.19768 4.37761 7.29605 4.45031 7.37402C4.51885 7.45275 4.60549 7.50932 4.70093 7.53766C4.79975 7.56764 4.90405 7.56764 5.00287 7.53766L5.36218 7.47086C5.44242 7.44876 5.52035 7.41742 5.59468 7.37736C5.68108 7.341 5.76574 7.29976 5.84831 7.25379C6.11736 7.09794 6.37571 6.92047 6.62129 6.7228C6.89908 6.51241 7.17988 6.30869 7.45767 6.09162C7.73546 5.87455 8.02532 5.63077 8.30613 5.397C8.58694 5.16323 8.81943 4.96286 9.07307 4.72909L8.99758 4.83595L8.27896 5.88791C8.13402 6.08829 7.97701 6.28532 7.84416 6.49237C7.76841 6.60543 7.70837 6.73038 7.66601 6.86307C7.62998 6.9558 7.60559 7.05356 7.59354 7.15361C7.59354 7.2538 7.56033 7.35733 7.54221 7.45751C7.50833 7.6089 7.52776 7.76888 7.59656 7.90501C7.66102 8.03569 7.76954 8.13292 7.89851 8.17552C8.08873 8.20223 8.27594 8.25233 8.46314 8.26902C8.55534 8.28239 8.64873 8.28239 8.74093 8.26902C8.83151 8.26902 8.91908 8.2423 9.00664 8.22226C9.1774 8.17933 9.34418 8.11897 9.50485 8.04194C9.67092 7.96513 9.83396 7.88164 9.99701 7.79147C10.6702 7.4172 11.3244 7.00248 11.9566 6.54915C12.2586 6.3421 12.5454 6.12837 12.8323 5.91129L12.2556 6.72615C12.1348 6.89647 12.008 7.0601 11.8902 7.23376C11.781 7.38324 11.6925 7.54981 11.6275 7.72802C11.58 7.88632 11.5427 8.04813 11.5158 8.21225C11.4901 8.31822 11.4899 8.4298 11.5154 8.53586C11.5408 8.64191 11.5909 8.73874 11.6607 8.81671C11.7283 8.89437 11.814 8.94985 11.9083 8.97701C12.0071 9.00766 12.1115 9.00766 12.2103 8.97701L12.3703 8.9503C12.5454 8.92358 12.7205 8.89686 12.8927 8.86346C13.0755 8.82295 13.2537 8.76023 13.4241 8.67645C13.7807 8.51096 14.1258 8.31674 14.4567 8.09536C15.124 7.6679 15.7672 7.20704 16.3982 6.71613L16.673 6.49572C16.6739 6.50459 16.6739 6.51355 16.673 6.52243C16.6013 6.62177 16.5471 6.73503 16.513 6.85639C16.4811 7.05202 16.4904 7.25313 16.5401 7.44415C16.5803 7.601 16.6748 7.73394 16.8032 7.81401C16.9316 7.89408 17.0834 7.91479 17.2255 7.87161L17.7721 7.70798C17.9944 7.63256 18.2105 7.53648 18.4182 7.42077C18.8282 7.19487 19.2255 6.94172 19.6079 6.6627C19.9098 6.46232 20.1906 6.24525 20.4775 6.03486C21.0391 5.61741 21.6098 5.21666 22.1593 4.78252L23.0893 4.05116L22.6877 4.5788C22.6273 4.65561 22.5669 4.73243 22.5035 4.8059C22.3649 4.96571 22.2358 5.13526 22.117 5.31351C22.0031 5.51306 21.9453 5.74551 21.951 5.98142C21.9604 6.08124 21.9745 6.18045 21.9932 6.27865C21.9932 6.32206 22.0204 6.36547 22.0325 6.40889C22.0617 6.4942 22.0869 6.58114 22.108 6.66937C22.136 6.77918 22.189 6.8792 22.262 6.95991C22.316 7.02143 22.3808 7.07007 22.4525 7.10281C22.5241 7.13554 22.6011 7.1517 22.6786 7.15027C23.0259 7.10017 23.3761 7.07012 23.7203 7.01334C24.0584 6.94288 24.3864 6.8227 24.6956 6.65601C25.3286 6.34636 25.9437 5.99393 26.5375 5.60072C26.9693 5.32353 27.392 5.03299 27.8147 4.74245L27.5128 5.10646L26.93 5.81779L26.5194 6.31872C26.3104 6.58975 26.1216 6.879 25.9547 7.18367C25.9162 7.25644 25.891 7.3369 25.8805 7.42047C25.8701 7.50403 25.8748 7.58905 25.8941 7.67064C25.9135 7.75223 25.9472 7.82879 25.9933 7.89594C26.0395 7.96309 26.0972 8.01952 26.1631 8.06197L26.4016 8.19555C26.4814 8.24354 26.5683 8.27522 26.6583 8.28906C26.8447 8.32031 27.035 8.30779 27.2168 8.25232C27.3951 8.19966 27.5673 8.1246 27.7302 8.02857C27.9415 7.92505 28.1378 7.78478 28.334 7.66122C28.5303 7.53766 28.6722 7.46753 28.8413 7.364C29.0104 7.26048 29.1795 7.15361 29.3456 7.03005C29.6475 6.83635 29.9494 6.63932 30.2272 6.42225L30.4809 6.22855L30.3571 6.48903C30.3063 6.58619 30.2796 6.69637 30.2794 6.80857C30.2792 6.92076 30.3057 7.03105 30.3561 7.1284C30.4065 7.22575 30.4792 7.30675 30.5668 7.36333C30.6543 7.41991 30.7538 7.45008 30.8553 7.45083L31.2629 7.47755L31.5467 7.43748C31.6313 7.4141 31.7158 7.38738 31.8004 7.35399C31.974 7.28757 32.1435 7.20835 32.3076 7.11687C32.4737 7.03338 32.6307 6.92652 32.7877 6.82633L33.7539 6.18847C34.0981 5.96138 34.4333 5.72093 34.7685 5.47715C35.4599 4.97621 36.1363 4.45525 36.8156 3.93094L37.1508 3.67378L37.0813 3.76729C36.8247 4.10125 36.5711 4.46526 36.3174 4.81925L35.937 5.35025C35.78 5.57066 35.6048 5.77437 35.4569 6.00146C35.3841 6.11307 35.3185 6.23026 35.2606 6.35212C35.1761 6.52912 35.1217 6.72281 35.0523 6.90314C35.0315 6.9817 35.0259 7.0642 35.0358 7.14531C35.0456 7.22643 35.0708 7.30435 35.1097 7.37402C35.1579 7.46572 35.2271 7.54177 35.3103 7.59453C35.3935 7.64729 35.4878 7.6749 35.5837 7.67458H36.0849C36.3033 7.66454 36.5191 7.61838 36.7251 7.53766C36.8972 7.47755 37.0602 7.39406 37.2263 7.31725C37.3923 7.24044 37.6279 7.10017 37.8302 6.98329C38.582 6.53245 39.3218 6.05823 40.0464 5.55396C40.7711 5.04969 41.4414 4.55209 42.1329 4.0211C42.4741 3.76396 42.8092 3.50013 43.1413 3.2363L43.1112 3.27972C42.9149 3.54688 42.7216 3.81738 42.5284 4.08789C42.4046 4.26154 42.2808 4.42185 42.151 4.59216C42.103 4.65706 42.0587 4.72509 42.0181 4.79588C41.9879 4.86935 41.9607 4.94616 41.9366 5.02297C41.9215 5.10563 41.9215 5.19078 41.9366 5.27344C41.9494 5.3996 41.9778 5.52321 42.0211 5.64079C42.0571 5.77876 42.1403 5.89576 42.2531 5.96687C42.3659 6.03798 42.4994 6.05757 42.625 6.0215C42.9572 5.92465 43.2923 5.83782 43.6214 5.72428C43.9429 5.60433 44.2566 5.4604 44.5605 5.29347C44.95 5.08976 45.3335 4.87269 45.7109 4.64894C46.1849 4.36842 46.662 4.09791 47.13 3.81405L48.4525 3.00587L48.063 3.40996C47.6916 3.79735 47.3172 4.1814 46.9489 4.57213C46.5805 4.96286 46.1215 5.44041 45.7199 5.88791L44.9892 6.69943C44.8292 6.87642 44.645 7.03338 44.4941 7.21038C44.4457 7.27383 44.4035 7.33729 44.3612 7.40408C44.3189 7.47087 44.2978 7.55102 44.2706 7.62449C44.2551 7.70606 44.244 7.78858 44.2374 7.87161C44.2374 7.99184 44.2555 8.11206 44.2676 8.23228C44.2693 8.37031 44.3178 8.5026 44.4035 8.60298C44.4637 8.66705 44.5378 8.71297 44.6187 8.73636C44.6996 8.75974 44.7845 8.75981 44.8654 8.73656C45.1463 8.66309 45.4271 8.5963 45.7109 8.52617C45.9919 8.44983 46.2675 8.35049 46.5352 8.22895C47.1173 7.9616 47.6849 7.65719 48.2351 7.31725C48.4857 7.16697 48.7394 7.02337 48.984 6.86307L49.5667 6.48903L50.2189 6.06491L50.0136 6.2586C49.9277 6.3285 49.845 6.40318 49.766 6.48236C49.7177 6.54581 49.6724 6.6126 49.6241 6.67939C49.5758 6.74618 49.5667 6.82967 49.5426 6.90314C49.5148 7.01235 49.5148 7.12789 49.5426 7.2371C49.5447 7.32498 49.5687 7.41049 49.612 7.48422C49.6542 7.5899 49.7156 7.68479 49.7925 7.76295C49.8694 7.84111 49.9601 7.90085 50.0589 7.93841C50.3321 8.02043 50.6214 8.00995 50.8892 7.90834C51.0422 7.8557 51.1915 7.79097 51.3361 7.71465L51.7649 7.50426C52.1906 7.31391 52.6103 7.11688 53.0209 6.89313C53.4316 6.66938 53.8966 6.39553 54.3284 6.14172C54.6061 5.98143 54.8749 5.80776 55.1466 5.62409C55.7505 5.24338 56.3544 4.86935 56.9583 4.46526L58.1661 3.63371L57.7403 4.1647L57.2965 4.71239C57.1348 4.90698 56.9826 5.11098 56.8405 5.32353C56.7104 5.53788 56.5924 5.76094 56.4873 5.99144C56.4456 6.07299 56.4212 6.16389 56.4159 6.25734C56.4105 6.35079 56.4243 6.44437 56.4563 6.53108C56.4882 6.6178 56.5374 6.6954 56.6003 6.7581C56.6632 6.82079 56.7381 6.86695 56.8194 6.89313C56.9462 6.92986 57.073 6.96993 57.1998 7.00333C57.2906 7.02051 57.3825 7.02945 57.4746 7.03005L57.7494 6.98663C57.924 6.94859 58.0935 6.88573 58.2536 6.79962C58.4167 6.72281 58.5767 6.63597 58.7367 6.54247L59.6184 6.03486C59.9777 5.82446 60.325 5.59737 60.6752 5.36694C60.9771 5.16991 61.2791 4.96285 61.581 4.7558L61.4965 4.84597C61.3334 5.02631 61.1945 5.21666 61.0436 5.41369C60.8755 5.60564 60.7758 5.85824 60.7628 6.12502C60.7708 6.26756 60.809 6.40601 60.8745 6.52911C60.944 6.65333 61.0392 6.75748 61.1523 6.83301L61.2278 6.87309C61.3185 6.9345 61.4233 6.9658 61.5297 6.96325C61.6448 6.97711 61.7612 6.96921 61.8739 6.93987C62.1003 6.86513 62.3197 6.76672 62.5291 6.64599C62.6499 6.5792 62.7737 6.52244 62.8945 6.45564C63.0153 6.38885 63.1542 6.30536 63.281 6.22521C63.5376 6.06158 63.7852 5.89126 64.0358 5.71426C64.1304 5.6497 64.221 5.5829 64.3076 5.51389C64.2442 5.59737 64.1778 5.67752 64.1113 5.76101L63.8094 6.14506C63.6554 6.33541 63.5074 6.52577 63.3565 6.7228C63.2055 6.91984 63.0817 7.11353 62.9488 7.3139C62.9131 7.38114 62.8897 7.45555 62.8801 7.53283C62.8704 7.61011 62.8747 7.68874 62.8927 7.76418C62.9106 7.83961 62.9419 7.91037 62.9847 7.97237C63.0275 8.03437 63.081 8.08639 63.1421 8.12542C63.2085 8.15882 63.278 8.19555 63.3414 8.23563L63.5739 8.34249C63.6546 8.36184 63.7363 8.37633 63.8184 8.38591C63.9573 8.38591 64.0872 8.35919 64.223 8.33915C64.4486 8.28772 64.6677 8.20584 64.8752 8.09536L65.5184 7.7614C65.6935 7.67123 65.8717 7.59109 66.0468 7.50092C66.2702 7.39071 66.4906 7.26716 66.708 7.14359C67.0613 6.94656 67.4176 6.74284 67.7618 6.52577L68.5378 6.02818L68.4744 6.12836C68.408 6.25527 68.3811 6.40285 68.398 6.54831C68.4149 6.69376 68.4747 6.82902 68.568 6.9332C68.7163 7.1208 68.904 7.26529 69.1145 7.35399C69.2373 7.38441 69.3636 7.39342 69.4889 7.3807C69.6615 7.36636 69.8313 7.32475 69.9932 7.25714C70.1079 7.21372 70.2227 7.15695 70.3374 7.10352C70.4521 7.05009 70.5941 6.98996 70.7209 6.92651C71.0228 6.78291 71.3036 6.61594 71.5874 6.43894C72.0192 6.16844 72.4389 5.87456 72.8496 5.56732C72.8268 5.66556 72.8146 5.76646 72.8133 5.86788C72.8149 5.98233 72.8354 6.0955 72.8737 6.20183C72.8918 6.25527 72.913 6.31204 72.9341 6.36547C72.9552 6.4189 73.0217 6.49237 73.067 6.55248C73.1651 6.65458 73.286 6.72603 73.4172 6.75954L73.5803 6.78291C73.6501 6.79796 73.7218 6.79796 73.7916 6.78291C73.9259 6.76267 74.059 6.73368 74.1902 6.69609C74.6789 6.53096 75.1497 6.30698 75.5942 6.02818C76.1136 5.72094 76.6148 5.38698 77.104 5.04635C77.4602 4.8059 77.8075 4.55209 78.1577 4.3083L78.2393 4.24819L78.197 4.325C78.1096 4.49278 78.0853 4.69184 78.1293 4.87926C78.1734 5.06668 78.2823 5.22744 78.4325 5.32687C78.5864 5.42387 78.7685 5.45025 78.9398 5.40034C79.022 5.3763 79.099 5.33438 79.1664 5.27704C79.2338 5.21971 79.2902 5.14809 79.3323 5.06639C79.4621 4.73243 79.5799 4.42519 79.6856 4.09791C79.7339 3.95097 79.7822 3.80403 79.8275 3.65709L79.912 3.39661C79.9818 3.18285 80.0105 2.9554 79.9966 2.72869C79.9965 2.63249 79.9763 2.53761 79.9376 2.45145C79.8989 2.3653 79.8427 2.2902 79.7734 2.23201C79.7042 2.17382 79.6237 2.13412 79.5383 2.11601C79.4528 2.09789 79.3648 2.10184 79.281 2.12757C79.1027 2.1777 78.9297 2.24821 78.7646 2.33796C78.6167 2.42145 78.4778 2.53834 78.3389 2.63519L77.9252 2.91571L77.2579 3.36655C76.956 3.56692 76.6541 3.77063 76.3521 3.96767C76.0502 4.1647 75.6788 4.41517 75.3346 4.63558C75.1655 4.73911 74.9934 4.83262 74.8243 4.9328L74.5465 5.0931C74.7971 4.75914 75.0507 4.40849 75.3104 4.07454C75.6878 3.58362 76.0804 3.11274 76.4548 2.61848C76.526 2.54268 76.5771 2.44685 76.6027 2.3413C76.6224 2.26214 76.6278 2.17947 76.6186 2.098C76.6094 2.01653 76.5857 1.93787 76.549 1.86653C76.5122 1.79519 76.4631 1.73256 76.4045 1.68223C76.3458 1.63189 76.2788 1.59484 76.2072 1.5732C76.1347 1.54999 76.0586 1.54366 75.9838 1.55458C75.9089 1.5655 75.837 1.59344 75.7724 1.63665C75.1534 2.12757 74.5405 2.63853 73.9185 3.10607C73.5471 3.39661 73.1787 3.69049 72.8043 3.97101C72.3514 4.30497 71.8984 4.65562 71.4244 4.97288C71.1225 5.16991 70.8205 5.3636 70.5186 5.5406L70.8447 5.20664C71.0832 4.95283 71.3278 4.70571 71.5693 4.45858C72.134 3.88418 72.6895 3.30309 73.2723 2.75206L73.3659 2.6619C73.4427 2.57644 73.4949 2.46779 73.516 2.34959C73.5372 2.23139 73.5262 2.10893 73.4846 1.99758C73.443 1.88624 73.3725 1.79099 73.2821 1.7238C73.1917 1.65661 73.0853 1.62048 72.9764 1.61996C72.8307 1.6241 72.6918 1.68844 72.5869 1.8003L72.4842 1.8938C72.1823 2.13425 71.8652 2.34798 71.5512 2.56172L70.7933 3.08936C70.2649 3.45671 69.7305 3.81405 69.1961 4.17806C69.039 4.28493 68.879 4.38511 68.722 4.48529L67.5716 5.22C67.2696 5.42038 66.9677 5.61073 66.6386 5.79775C66.2491 6.02818 65.8566 6.25527 65.458 6.46566C65.2829 6.55917 65.1047 6.64265 64.9296 6.72948C64.7998 6.79293 64.6729 6.86307 64.5431 6.9332C64.7001 6.73283 64.845 6.53579 65.0111 6.33541C65.1772 6.13504 65.3765 5.87121 65.5606 5.64412L66.3608 4.66563C66.5661 4.41851 66.7745 4.17472 66.9828 3.92759C67.1428 3.73724 67.2847 3.5402 67.4418 3.33649C67.5988 3.13277 67.6924 2.95912 67.8162 2.77211C67.8504 2.70768 67.8728 2.6364 67.882 2.56238C67.8913 2.48836 67.8873 2.41303 67.8702 2.34074C67.853 2.26845 67.8232 2.20062 67.7823 2.14111C67.7415 2.08161 67.6904 2.0316 67.632 1.99399C67.5733 1.95452 67.5078 1.92907 67.4396 1.91929C67.3715 1.90951 67.3023 1.91563 67.2364 1.93722C67.1489 1.97061 67.0643 2.01069 66.9798 2.05076C66.8664 2.10566 66.7582 2.17276 66.6567 2.25113C66.5389 2.33796 66.4242 2.43815 66.3095 2.52497L65.7056 2.97916L64.7665 3.68047C64.4012 3.95431 64.0238 4.2148 63.6524 4.48196C63.4561 4.62222 63.2538 4.75914 63.0485 4.89272L62.9821 4.93948L63.6675 4.13799C63.8939 3.8775 64.1204 3.61701 64.3438 3.35319L64.845 2.75875C65.0383 2.53166 65.2225 2.2912 65.4067 2.0541C65.4929 1.95975 65.5483 1.83635 65.5642 1.70333C65.58 1.57032 65.5554 1.43524 65.4942 1.3194C65.4337 1.20341 65.3401 1.11293 65.2281 1.06215C65.116 1.01138 64.9919 1.0032 64.8752 1.03888C64.7766 1.07217 64.6806 1.11462 64.5884 1.16577C64.4374 1.26262 64.2864 1.36949 64.1566 1.47969C64.063 1.5565 63.9603 1.62664 63.8547 1.69677L63.2327 2.14093C62.8432 2.41477 62.4567 2.69529 62.0641 2.9658L60.5876 3.96767C60.2042 4.23149 59.8116 4.48196 59.4191 4.72909C59.1172 4.91944 58.8152 5.0931 58.4952 5.27009C58.3653 5.34022 58.2415 5.41704 58.1147 5.49385C58.1932 5.39032 58.2748 5.29013 58.3563 5.1866L58.7579 4.679L59.3104 3.97434L60.1408 2.91236C60.2676 2.75207 60.3944 2.57841 60.5242 2.43481C60.6541 2.29121 60.802 2.08415 60.9319 1.90048C61.0435 1.73322 61.1227 1.5422 61.1644 1.33943C61.1876 1.23855 61.1871 1.13274 61.1627 1.03216C61.1384 0.93158 61.0912 0.8396 61.0255 0.76503C60.9422 0.672823 60.8336 0.613659 60.7168 0.596748C60.5999 0.579836 60.4813 0.606126 60.3793 0.671523C59.1051 1.55317 57.8309 2.43481 56.5446 3.29641C56.3212 3.44669 56.0977 3.60365 55.8713 3.74725L54.8235 4.41517C53.8446 5.05482 52.8368 5.63888 51.8041 6.16509L52.3053 5.68754C52.7794 5.23336 53.2625 4.78586 53.7426 4.35171L55.4637 2.74539C55.7445 2.48824 56.0192 2.22442 56.297 1.96393L56.8466 1.45965C57.0384 1.30699 57.2219 1.14195 57.3961 0.965406C57.4597 0.895773 57.5056 0.808874 57.5292 0.71343C57.5528 0.617987 57.5533 0.517354 57.5307 0.421616C57.5081 0.325879 57.4631 0.238405 57.4002 0.16797C57.3374 0.0975339 57.2589 0.046607 57.1727 0.0203045C57.1253 0.00667595 57.0766 -5.93065e-05 57.0277 0.000267904C56.9391 -0.00300646 56.8516 0.0237997 56.7771 0.0770815C56.5507 0.264097 56.3151 0.44777 56.0977 0.648143L55.823 0.89861C55.5482 1.10566 55.2674 1.30938 54.9926 1.51309C54.6605 1.76022 54.3253 1.99733 53.9932 2.23778C53.2595 2.76543 52.5197 3.27971 51.78 3.79735C51.5384 3.96098 51.3029 4.13131 51.0583 4.29495L49.8143 5.10646L48.4888 5.9714C48.2774 6.10833 48.06 6.23523 47.8456 6.36881C47.3112 6.70277 46.7767 7.00667 46.2182 7.27383C46.0009 7.37134 45.7792 7.45606 45.5539 7.52764L45.5901 7.48757L45.8619 7.17698C46.0642 6.94655 46.2604 6.71278 46.4657 6.48903L47.7339 5.12649C48.1234 4.70571 48.525 4.29494 48.9236 3.88084L49.4278 3.34985C49.6935 3.06598 49.9653 2.79882 50.2249 2.50828C50.3484 2.37233 50.4634 2.22727 50.5692 2.07413C50.6809 1.91383 50.7775 1.74018 50.8711 1.57988C50.9131 1.49758 50.9322 1.40343 50.926 1.30919C50.9199 1.21495 50.8888 1.12479 50.8366 1.04998C50.7844 0.975164 50.7135 0.919015 50.6326 0.888531C50.5518 0.858048 50.4646 0.854585 50.382 0.878574C50.1185 0.969763 49.8612 1.08136 49.612 1.21253C49.4278 1.31606 49.2527 1.43628 49.0685 1.54649L48.2321 2.04074L47.0062 2.76209C46.6379 2.97916 46.2695 3.18621 45.8981 3.39661C45.2066 3.79067 44.5152 4.19141 43.8026 4.53873C43.6456 4.60886 43.5007 4.67232 43.3316 4.73243C43.3738 4.66898 43.4161 4.60886 43.4614 4.54875C43.6547 4.27156 43.8539 4.00107 44.0472 3.73056L44.6511 2.90569L45.0255 2.38472C45.1312 2.23778 45.2368 2.0875 45.3274 1.93388C45.4603 1.72266 45.5764 1.4992 45.6747 1.26596C45.7162 1.1832 45.7379 1.09011 45.7379 0.995461C45.7379 0.900814 45.7162 0.807725 45.6747 0.724957C45.6203 0.623742 45.5373 0.54507 45.4386 0.501029C45.3399 0.456988 45.2308 0.450009 45.1281 0.481165C44.9751 0.540002 44.8274 0.614932 44.6873 0.70492C44.5756 0.778391 44.4729 0.878574 44.3642 0.962063L43.9747 1.26596L43.2621 1.81699C42.7609 2.20438 42.2536 2.58509 41.7524 2.9658C41.2512 3.34651 40.7258 3.70384 40.2125 4.07454C39.6992 4.44523 39.2282 4.74245 38.73 5.0764C38.4008 5.29014 38.0627 5.48717 37.7275 5.69088C37.3923 5.8946 37.0421 6.11166 36.6858 6.292L36.6314 6.31872C36.7039 6.21853 36.7764 6.12168 36.8458 6.0215L37.3652 5.29347C37.6279 4.92278 37.8966 4.56211 38.1623 4.19475C38.3857 3.89085 38.6092 3.58362 38.8296 3.27304L39.3489 2.5517C39.5996 2.21774 39.826 1.83702 40.0585 1.46967C40.1281 1.33517 40.1472 1.1758 40.1116 1.02589C40.0761 0.875981 39.9887 0.747518 39.8683 0.66818C39.7949 0.618085 39.717 0.576671 39.6358 0.544618C39.468 0.504845 39.2929 0.534553 39.1436 0.628107C38.9504 0.760468 38.7702 0.914938 38.6062 1.08897C37.8845 1.66337 37.1568 2.2311 36.4201 2.78213L35.0764 3.784C34.4967 4.21814 33.9019 4.63558 33.304 5.03299L32.6579 5.44709L33.0202 5.02964L33.8566 4.06785L34.382 3.45671C34.536 3.27304 34.6839 3.08602 34.8258 2.88899C34.9455 2.71441 35.0564 2.53269 35.158 2.34465C35.2211 2.22473 35.2467 2.08516 35.2309 1.94752C35.215 1.80989 35.1586 1.68184 35.0704 1.58322C35.0004 1.50732 34.9142 1.45219 34.8198 1.42292C34.747 1.39817 34.6702 1.39102 34.5946 1.40197C34.5191 1.41292 34.4466 1.44171 34.382 1.48638C34.0196 1.77692 33.6633 2.08082 33.3101 2.38472C32.9568 2.68862 32.679 2.92238 32.3559 3.18287L31.5648 3.8274C31.441 3.92759 31.3203 4.03112 31.1934 4.12797L29.7653 5.22C29.4331 5.46713 29.0919 5.69755 28.7507 5.92464C28.5031 6.09162 28.2495 6.2586 27.9928 6.39552L28.4669 5.80777C28.7839 5.4137 29.107 5.02965 29.4271 4.63892C29.7049 4.30497 29.9887 3.97101 30.2725 3.63705L30.7526 3.076C31.1174 2.72504 31.4474 2.3321 31.7369 1.90382C31.7978 1.78731 31.8222 1.65183 31.8063 1.51842C31.7905 1.38501 31.7352 1.26112 31.6492 1.16598C31.5632 1.07083 31.4512 1.00974 31.3305 0.992189C31.2099 0.974643 31.0874 1.00162 30.9821 1.06893C30.1608 1.65669 29.3274 2.22442 28.4971 2.79215L27.238 3.6504C26.769 3.971 26.2959 4.2827 25.8189 4.58549C25.5592 4.74913 25.2935 4.90274 25.0278 5.05302C24.762 5.2033 24.4722 5.3636 24.1884 5.50052C24.0706 5.55396 23.9498 5.60071 23.829 5.64747C23.6708 5.70516 23.5081 5.74652 23.3429 5.77103H23.2916C23.3731 5.67418 23.4546 5.574 23.5301 5.47047L23.9106 4.96619C24.0827 4.73242 24.2578 4.49866 24.436 4.27157L25.1697 3.31312C25.3961 3.01923 25.6256 2.72869 25.849 2.43481C26.002 2.23444 26.15 2.02738 26.2929 1.81365C26.4227 1.61661 26.5435 1.40956 26.6703 1.20919C26.7313 1.09267 26.7557 0.957175 26.7399 0.823723C26.724 0.690271 26.6688 0.566332 26.5828 0.471147C26.4971 0.376286 26.3854 0.315624 26.2651 0.298696C26.1448 0.281769 26.0229 0.309536 25.9185 0.37764C25.7645 0.477827 25.6165 0.578018 25.4626 0.684884C25.3086 0.79175 25.0942 0.972085 24.913 1.12237L24.4601 1.48971L23.4244 2.31458C22.8779 2.74872 22.3254 3.1762 21.7758 3.607C21.2897 3.98771 20.7885 4.34838 20.2903 4.71239L19.3361 5.41369C19.164 5.5406 18.9829 5.65749 18.8077 5.77771C18.6779 5.86454 18.545 5.95471 18.4122 6.0382C19.2637 4.87603 20.1292 3.72944 21.0089 2.59845C21.1021 2.48997 21.1559 2.34729 21.1599 2.1977C21.1602 2.08534 21.1304 1.97538 21.0742 1.88176C21.018 1.78814 20.938 1.71507 20.8442 1.6718C20.7505 1.62853 20.6472 1.617 20.5475 1.63869C20.4478 1.66037 20.3562 1.71429 20.2842 1.79361C20.1151 1.96727 19.9491 2.14426 19.7709 2.30456L19.469 2.57841C19.2999 2.73537 19.1278 2.88899 18.9557 3.04261L17.8023 4.06452L16.3408 5.28345C15.9513 5.61741 15.5437 5.90796 15.1331 6.20518C14.813 6.43895 14.4809 6.65268 14.1487 6.87309C13.8177 7.09706 13.4761 7.30106 13.1251 7.48422C13.3214 7.20704 13.5116 6.92651 13.7049 6.64599C14.1065 6.09162 14.505 5.53392 14.9127 4.99291L15.8547 3.78065C16.0147 3.5736 16.1778 3.37322 16.3439 3.17285C16.4495 3.04261 16.5552 2.91571 16.6669 2.7888L16.7817 2.68862C16.8904 2.59511 16.9991 2.5016 17.1048 2.40141C17.215 2.30123 17.3161 2.18938 17.4067 2.06746C17.4697 1.99594 17.5149 1.90757 17.5379 1.81097C17.5608 1.71437 17.5607 1.61284 17.5376 1.51629C17.5145 1.41974 17.4691 1.33147 17.406 1.26008C17.3428 1.1887 17.264 1.13665 17.1772 1.109C17.1108 1.08699 17.0408 1.08095 16.9721 1.09132C16.9033 1.10169 16.8374 1.12822 16.7787 1.16911L16.4767 1.41624C16.3408 1.53646 16.214 1.66337 16.0902 1.79695C15.9664 1.93054 15.897 2.01068 15.7883 2.13091L15.2629 2.58508L14.1729 3.47341C13.8709 3.71386 13.569 3.93427 13.2671 4.1647C12.8866 4.45858 12.5092 4.75914 12.1227 5.03966C11.6396 5.39366 11.1565 5.74431 10.6583 6.07159C10.4137 6.23189 10.1601 6.37883 9.90945 6.52577C9.65884 6.67271 9.39615 6.82967 9.13044 6.9666C8.98747 7.02673 8.84124 7.07691 8.69262 7.11687L8.7681 6.99665C8.97041 6.70945 9.17271 6.41891 9.37199 6.12169C9.529 5.88458 9.67393 5.64413 9.84604 5.41036L10.8002 4.0378L11.4735 3.08602C11.5913 2.9157 11.7121 2.75207 11.8328 2.57841C12.017 2.31458 12.1801 2.03406 12.3492 1.75688C12.4049 1.65111 12.4274 1.52792 12.4131 1.40653C12.3989 1.28513 12.3488 1.17235 12.2705 1.08579C12.1922 0.999229 12.0903 0.94376 11.9805 0.928023C11.8708 0.912286 11.7594 0.937166 11.6637 0.998793C11.4947 1.1257 11.3256 1.24592 11.1655 1.38618L10.8787 1.63665L10.3865 2.06746L9.29047 3.01923L7.97097 4.13465C7.60562 4.44522 7.22819 4.74245 6.85076 5.03633L6.44918 5.34022L6.79038 4.82594L7.44559 3.82407L7.84114 3.21961C7.98305 3.00254 8.11893 2.78547 8.24574 2.5517C8.38059 2.27946 8.49569 1.99582 8.58996 1.70345C8.61722 1.59984 8.61722 1.48979 8.58996 1.38618C8.56807 1.29695 8.52786 1.2145 8.47246 1.14526C8.41706 1.07601 8.34797 1.02184 8.27055 0.98694C8.19313 0.952044 8.10948 0.937374 8.0261 0.944065C7.94272 0.950755 7.86186 0.978626 7.78981 1.02552C7.62434 1.12515 7.46497 1.2367 7.31274 1.35947C7.12855 1.51309 6.95644 1.69343 6.78132 1.85373C6.60619 2.01403 6.50655 2.11421 6.36765 2.24445L5.67922 2.88231C4.87907 3.62369 4.08798 4.37509 3.26368 5.08975L2.4756 5.75767C2.34879 5.86453 2.21895 5.96472 2.08912 6.06157L2.41219 5.45711C2.62657 5.05636 2.84699 4.6623 3.06439 4.26489C3.28179 3.86749 3.46296 3.52017 3.66828 3.14614C3.78 2.93909 3.8887 2.72869 4.00646 2.52832C4.14537 2.3072 4.26565 2.07244 4.36577 1.82701C4.41921 1.70593 4.45002 1.57417 4.45635 1.43962C4.45274 1.33307 4.44164 1.227 4.42314 1.12237C4.40165 1.03073 4.35841 0.947111 4.29789 0.880174C4.23737 0.813237 4.16177 0.765412 4.07892 0.741651C3.99441 0.715227 3.90503 0.714296 3.82008 0.73896C3.73513 0.763624 3.6577 0.812988 3.59581 0.881917C3.13686 1.44964 2.68998 2.03407 2.24613 2.61515C2.19686 2.59492 2.14469 2.58473 2.09214 2.58508C2.02863 2.58446 1.96567 2.59804 1.90704 2.62501C1.8484 2.65199 1.79531 2.69179 1.75094 2.74204C1.49127 3.10272 1.22858 3.46005 0.974943 3.8274C0.673 4.26822 0.371056 4.71572 0.0691128 5.16323C0.0239328 5.24399 0 5.33709 0 5.43207C0 5.52704 0.0239328 5.62013 0.0691128 5.7009C0.110548 5.7824 0.17117 5.84996 0.244535 5.89641C0.317901 5.94287 0.401272 5.96648 0.485794 5.96473C0.558689 5.96078 0.631294 5.95185 0.703194 5.93801C0.790449 5.91589 0.874007 5.87871 0.950787 5.82781C0.857185 5.9881 0.751506 6.14506 0.666962 6.31538C0.606471 6.44545 0.564702 6.58516 0.543164 6.72948C0.520989 6.88969 0.51089 7.05166 0.51297 7.21372C0.513783 7.30933 0.534328 7.40347 0.57304 7.48896C0.611752 7.57446 0.667608 7.64905 0.736345 7.70703C0.805083 7.76502 0.884888 7.80487 0.96967 7.82355C1.05445 7.84224 1.14197 7.83925 1.22556 7.81484C1.50282 7.73692 1.77599 7.64216 2.04382 7.53098C2.29504 7.3989 2.53461 7.24126 2.75943 7.0601Z" fill="#8F00FF"/>
</svg>
