<svg width="87" height="87" viewBox="0 0 87 87" fill="none" xmlns="http://www.w3.org/2000/svg">
<path d="M85.6816 44.5554C51.5526 47.4143 46.7542 52.2126 43.8953 86.334C43.8953 86.5246 43.8196 86.7073 43.6849 86.8421C43.5501 86.9769 43.3673 87.0526 43.1768 87.0526C42.9862 87.0526 42.8034 86.9769 42.6686 86.8421C42.5339 86.7073 42.4582 86.5246 42.4582 86.334C39.5915 52.2126 34.7855 47.422 0.687338 44.5554C0.496757 44.5554 0.313982 44.4797 0.179221 44.3449C0.0444594 44.2102 -0.03125 44.0274 -0.03125 43.8368C-0.03125 43.6462 0.0444594 43.4635 0.179221 43.3287C0.313982 43.194 0.496757 43.1182 0.687338 43.1182C34.8087 40.2593 39.6147 35.461 42.4659 1.33968C42.4659 1.1491 42.5416 0.966326 42.6764 0.831565C42.8111 0.696803 42.9939 0.621094 43.1845 0.621094C43.3751 0.621094 43.5578 0.696803 43.6926 0.831565C43.8274 0.966326 43.9031 1.1491 43.9031 1.33968C46.762 35.461 51.5603 40.2593 85.6894 43.1182C85.8799 43.1193 86.0623 43.196 86.1963 43.3314C86.3304 43.4669 86.4051 43.6501 86.4041 43.8407C86.4031 44.0313 86.3264 44.2136 86.1909 44.3477C86.0554 44.4817 85.8722 44.5564 85.6816 44.5554Z" fill="#F5F5F5"/>
</svg>
