<svg width="26" height="26" viewBox="0 0 26 26" fill="none" xmlns="http://www.w3.org/2000/svg">
<path d="M25.3735 13.4511C17.3145 14.5328 15.066 16.7736 13.9843 24.8403C13.9659 25.017 13.8826 25.1807 13.7506 25.2997C13.6186 25.4186 13.4472 25.4845 13.2695 25.4845C13.0918 25.4845 12.9204 25.4186 12.7884 25.2997C12.6565 25.1807 12.5732 25.017 12.5548 24.8403C11.4653 16.7736 9.22458 14.5328 1.16558 13.4511C0.993107 13.4257 0.835514 13.3392 0.721567 13.2072C0.60762 13.0753 0.544922 12.9068 0.544922 12.7325C0.544922 12.5581 0.60762 12.3896 0.721567 12.2577C0.835514 12.1258 0.993107 12.0392 1.16558 12.0139C9.22458 10.9321 11.4653 8.69137 12.5548 0.624644C12.5732 0.447902 12.6565 0.284246 12.7884 0.165278C12.9204 0.0463109 13.0918 -0.0195312 13.2695 -0.0195312C13.4472 -0.0195312 13.6186 0.0463109 13.7506 0.165278C13.8826 0.284246 13.9659 0.447902 13.9843 0.624644C15.066 8.69137 17.3145 10.9321 25.3735 12.0139C25.546 12.0392 25.7036 12.1258 25.8175 12.2577C25.9314 12.3896 25.9942 12.5581 25.9942 12.7325C25.9942 12.9068 25.9314 13.0753 25.8175 13.2072C25.7036 13.3392 25.546 13.4257 25.3735 13.4511Z" fill="#F5F5F5"/>
</svg>
